<svg width="380" height="378" viewBox="0 0 380 378" fill="none" xmlns="http://www.w3.org/2000/svg">
<g clip-path="url(#clip0_29_31)">
<path d="M190 378C294.934 378 380 293.382 380 189C380 84.6181 294.934 -6.10352e-05 190 -6.10352e-05C85.0659 -6.10352e-05 0 84.6181 0 189C0 293.382 85.0659 378 190 378Z" fill="url(#paint0_linear_29_31)"/>
<g style="mix-blend-mode:multiply">
<path d="M120.585 183.77C120.818 184.002 121.052 184.224 121.293 184.436C124.817 186.94 128.793 188.18 132.811 188.028C135.358 188.587 137.976 188.003 140.232 186.373C141.551 184.707 142.484 182.594 142.924 180.276C143.365 177.957 143.295 175.526 142.724 173.256C141.523 168.727 140.794 164.009 140.559 159.23C141.681 151.982 144.658 145.436 149.008 140.653C152.861 135.634 155.305 129.086 155.947 122.056C156.181 116.244 152.053 109.413 153.494 103.954C154.358 100.695 157.465 99.2012 159.256 96.5474C162.901 91.1288 159.786 82.4912 154.771 78.9898C149.41 76.1574 143.685 74.6648 137.896 74.5904C135.649 74.6153 133.427 73.9863 131.393 72.7499C129.36 71.5134 127.566 69.7009 126.145 67.4462C125.538 65.5011 124.798 63.6302 123.933 61.856C120.935 57.3254 114.744 59.8379 111.185 63.7429C99.9016 76.0837 82.9409 81.1694 72.4982 63.2082C71.0575 60.7259 69.7493 57.7896 67.5377 56.6696C64.306 55.045 60.8794 58.0217 58.146 60.8471C42.6571 76.8608 27.1838 83.4701 22.0598 111.471C20.0201 122.184 20.1893 133.402 22.5504 144.003C24.3494 149.908 25.8044 155.979 26.9034 162.166C27.5887 168.22 26.8178 174.517 27.9314 180.47C29.045 186.424 33.1644 192.226 37.6811 190.864C44.0978 188.916 45.5696 176.979 51.0363 172.802C55.3582 169.492 67.3429 166.929 70.5045 173.639C71.5547 177.35 71.8025 181.363 71.221 185.243C71.2245 188.786 71.9348 192.267 73.2829 195.348C74.631 198.43 76.5711 201.008 78.9149 202.831C80.5658 204.062 82.528 205.041 83.3847 207.291C83.7269 208.623 83.8199 210.041 83.656 211.429C83.4922 212.817 83.0765 214.134 82.4426 215.273C78.6736 224.031 71.3846 227.008 67.5377 235.111C61.3079 248.228 66.315 265.877 73.7675 277.875C81.2199 289.872 91.0553 299.599 96.1559 313.575C98.095 320.741 100.462 327.701 103.235 334.392C104.653 337.657 106.913 340.17 109.618 341.491C112.324 342.813 115.302 342.857 118.03 341.616C125.039 336.793 123.482 323.322 124.12 312.889C125.545 290.276 141.945 272.779 142.638 250.115C143.053 245.742 142.368 241.312 140.684 237.483C139.001 233.655 136.409 230.632 133.294 228.865C130.179 227.755 126.23 228.128 124.611 224.475C123.591 222.195 124.027 219.289 123.513 216.736C122.033 209.41 108.226 204.688 103.04 203.87C100.509 203.467 97.5887 203.063 96.2104 200.198C95.4316 198.492 95.385 196.262 94.5128 194.617C92.9009 191.59 89.1163 191.732 87.6055 188.624C86.999 187.091 86.75 185.362 86.889 183.649C87.0136 174.79 91.3746 166.808 98.6558 170.531C100.907 172.09 103.297 173.283 105.773 174.083C107.533 174.386 109.348 173.932 111.092 174.396C115.032 175.425 117.376 180.561 120.585 183.77Z" fill="#FFD885"/>
</g>
<g style="mix-blend-mode:multiply">
<path d="M281.72 54.9025C277.17 53.7807 272.515 53.5595 267.913 54.2466C265.292 54.873 262.635 55.2106 259.97 55.2557C257.495 54.9054 255.04 54.3492 252.619 53.5906C239.903 50.7048 235.619 58.7166 226.859 66.4359C218.846 73.4992 208.699 68.6962 200.164 74.0543C196.545 76.27 193.662 80.0988 192.042 84.8411C190.025 91.3596 193.023 96.3545 191.099 102.379C189.699 105.413 188.768 108.772 188.358 112.267C188.538 113.748 188.538 115.256 188.358 116.737C187.919 118.073 187.177 119.206 186.232 119.986C181.217 124.931 174.505 129.633 174.333 137.796C174.263 141.318 175.54 144.668 175.712 148.18C175.992 154.062 173.212 160.288 175.206 165.596C176.029 167.335 177.162 168.792 178.511 169.846C179.859 170.9 181.383 171.518 182.954 171.65C188.515 172.153 194.096 171.16 199.346 168.734C204.143 166.978 209.625 164.415 211.175 158.28C212.608 152.65 210.1 145.728 212.733 140.874C216.26 134.396 230.776 131.268 230.355 143.417C230.27 145.899 229.351 148.462 230.083 150.763C230.7 152.163 231.52 153.396 232.497 154.395C234.016 156.491 234.976 159.164 235.234 162.02C235.492 164.876 235.035 167.764 233.929 170.258C226.82 185.494 209.143 186.897 203.232 204.969C195.717 227.945 201.028 274.079 218.713 288.287C219.721 288.943 220.618 289.852 221.353 290.961C222.181 293.032 222.373 295.433 221.89 297.681C220.795 307.099 219.7 316.493 218.604 325.864C218.075 330.364 217.872 335.884 220.777 338.447C222.108 339.241 223.566 339.619 225.031 339.549C226.496 339.479 227.928 338.963 229.21 338.043C243.745 331.687 256.751 320.534 266.948 305.683C277.757 290.426 278.481 277.762 285.139 260.124C287.545 253.757 292.451 249.367 294.671 242.889C296.449 235.794 296.547 228.171 294.951 221.003L292.404 203.122C292.168 198.289 290.543 193.745 287.849 190.388C285.154 187.845 281.019 187.462 279.602 183.557C279.041 182.023 279.049 180.217 278.442 178.714C277.39 176.1 274.906 175.222 272.874 173.91C268.326 170.994 269.619 165.253 271.013 160.308C271.836 156.946 273.409 153.975 275.534 151.77C277.658 149.565 280.239 148.224 282.951 147.917C292.467 147.836 297.131 163.053 305.285 169.42C309.144 172.016 313.348 173.642 317.674 174.213C334.222 177.755 355.482 183.779 370.784 170.348C372.932 168.166 374.456 165.116 375.115 161.683C375.774 158.25 375.529 154.631 374.42 151.398C369.67 133.478 355.302 123.821 348.66 107.414C345.015 98.4129 345.179 93.6502 338.536 87.8481C330.228 81.5049 321.648 75.7777 312.838 70.6942C303.112 63.502 292.629 58.1823 281.72 54.9025Z" fill="#FFD885"/>
</g>
<g style="mix-blend-mode:multiply" opacity="0.2">
<path d="M215.83 358.487C177.389 358.524 139.846 346.925 108.183 325.23C76.5207 303.534 52.2352 272.768 38.5504 237.014C24.8657 201.26 22.4288 162.209 31.5629 125.044C40.6971 87.8798 60.9707 54.3586 89.6926 28.9297C67.3253 42.7308 48.0899 61.0156 33.2107 82.6203C18.3315 104.225 8.13435 128.677 3.2686 154.418C-1.59714 180.16 -1.02495 206.628 4.94858 232.137C10.9221 257.647 22.1661 281.639 37.9651 302.587C53.764 323.535 73.7719 340.979 96.7148 353.81C119.658 366.641 145.033 374.577 171.226 377.113C197.419 379.649 223.855 376.73 248.853 368.541C273.85 360.351 296.86 347.072 316.419 329.547C286.308 348.456 251.433 358.49 215.83 358.487Z" fill="#222226"/>
</g>
<g style="mix-blend-mode:overlay" opacity="0.2">
<path d="M190.292 0.000190532C171.375 -0.00697371 152.564 2.80242 134.482 8.33503C114.205 22.2048 97.1068 40.1905 84.3136 61.1089C71.5204 82.0272 63.3216 105.404 60.2565 129.703C57.1914 154.001 59.3294 178.67 66.53 202.087C73.7306 225.504 85.8306 247.138 102.034 265.567C118.238 283.995 138.178 298.801 160.542 309.009C182.907 319.218 207.189 324.598 231.793 324.796C256.396 324.994 280.763 320.005 303.291 310.158C325.818 300.311 345.996 285.828 362.497 267.662C375.859 238.915 381.727 207.28 379.561 175.678C377.394 144.077 367.262 113.528 350.101 86.854C332.94 60.1795 309.302 38.2391 281.371 23.059C253.44 7.87886 222.116 -0.0515505 190.292 0.000190532V0.000190532Z" fill="white"/>
</g>
</g>
<defs>
<linearGradient id="paint0_linear_29_31" x1="80.18" y1="56.3219" x2="317.7" y2="345.966" gradientUnits="userSpaceOnUse">
<stop stop-color="#7FC8EF"/>
<stop offset="0.891" stop-color="#5895FF"/>
</linearGradient>
<clipPath id="clip0_29_31">
<rect width="380" height="378" fill="white"/>
</clipPath>
</defs>
</svg>
