<svg width="280" height="286" viewBox="0 0 280 286" fill="none" xmlns="http://www.w3.org/2000/svg">
<g filter="url(#filter0_d_38_14)">
<g filter="url(#filter1_i_38_14)">
<path d="M12.6366 88.8712C13.8574 88.1427 16.4099 89.1172 25.2102 91.5926C24.7512 88.7206 16.4289 86.2373 13.3464 83.9909C9.49332 81.183 10.6489 78.6445 12.842 78.5244C15.0352 78.4044 26.1984 84.9734 28.2747 83.4723C17.5648 73.6091 9.09368 72.9533 15.0926 67.4817C17.531 65.2576 32.8647 79.4726 32.0292 77.2996C31.1612 75.042 21.3262 67.6651 25.8866 64.449C27.4091 63.3753 29.3917 64.717 29.3917 64.717C29.3917 64.717 41.3713 75.6192 42.5111 76.4101C43.6508 77.2009 39.7584 67.6421 39.7584 67.6421C39.7584 67.6421 38.8159 63.6937 43.8731 62.7652C47.9189 62.0224 56.1594 89.6412 56.1594 89.6412C56.1594 89.6412 48.6485 105.396 41.3926 104.482C34.1366 103.569 33.3681 103.241 33.3681 103.241C27.2962 101.472 23.5063 99.1306 18.4974 97.0237C13.4884 94.9168 9.44216 90.7773 12.6366 88.8712Z" fill="#6C6C6C"/>
<path d="M14.6026 91.8925C13.5482 90.3626 14.7018 88.6809 13.2361 88.5133C12.4257 88.4207 11.6654 89.3541 11.3598 89.8951C10.9778 90.5713 11.251 91.1967 11.789 92.2606C13.1138 94.8806 17.9206 96.9909 17.9206 96.9909C17.9206 96.9909 33.643 106.222 43.2834 104.402C37.5645 104.145 33.762 103.016 29.7253 101.482C22.8217 98.8581 18.5834 97.6688 14.6026 91.8925Z" fill="#BEC1C9"/>
</g>
<g filter="url(#filter2_i_38_14)">
<path d="M211.216 74.2445C211.135 72.6077 214.583 71.3164 217.422 71.3338C220.261 71.3513 236.592 87.418 238.153 89.9337C239.714 92.4495 233.562 95.3253 233.562 95.3253L219.753 85.3759C219.753 85.3759 211.296 75.8813 211.216 74.2445Z" fill="#6C6C6C"/>
<path d="M235.503 86.6399C233.374 84.5855 233.501 84.843 231.245 82.5311C238.419 91.742 233.56 95.3254 233.56 95.3254C233.56 95.3254 235.725 94.353 236.791 93.3469C237.644 92.5412 238.425 91.793 238.411 90.5536C238.395 89.1154 237.632 88.6943 235.503 86.6399Z" fill="#BEC1C9"/>
</g>
<g filter="url(#filter3_ii_38_14)">
<path d="M190.487 72.1212C187.84 70.9756 180.684 70.4551 176.433 74.5792C176.433 74.5792 179.028 75.7524 180.575 76.6902C182.122 77.628 183.534 77.7542 190.389 86.2062C197.244 94.6583 200.474 110.951 201.923 111.289C203.371 111.626 209.855 112.467 214.74 111.364C222.9 109.523 228.549 106.44 232.06 99.1745C232.768 97.7082 233.48 95.2728 233.48 95.2728C233.48 95.2728 226.103 91.0422 222.087 87.5052C217.558 83.5156 213.607 78.0647 212.114 75.8359C210.899 77.3752 209.852 79.249 207.62 80.5205C201.095 84.2387 193.134 73.2667 190.487 72.1212Z" fill="#D6DADE"/>
<path d="M222.887 94.6753C223.408 90.6841 219.44 85.8062 219.342 85.0026L233.561 95.3253C233.561 95.3253 233.468 95.8758 233.388 96.2249C232.858 98.5444 232.723 98.7752 230.753 101.945C228.782 105.115 225.549 107.087 225.549 107.087C225.549 107.087 218.07 111.345 212.73 112.078C208.485 112.66 202.701 111.97 201.79 111.538C201.061 111.193 199.063 103.053 197.338 99.0951C199.209 101.132 200.737 104.831 204.548 106.011C208.543 107.249 214.978 106.456 219.029 102.424C221.464 100.001 222.283 99.2993 222.887 94.6753Z" fill="#BEC1C9"/>
</g>
<g filter="url(#filter4_i_38_14)">
<path d="M241.881 192.138L213.78 185.414C213.78 185.414 206.028 198.64 207.651 207.304C209.157 215.346 213.224 219.409 219.721 224.697C226.435 230.163 231.726 235.329 240.419 233.465C245.955 232.278 250.151 230.518 252.387 225.543C254.929 219.887 249.609 212.335 248.33 210.39C247.05 208.444 239.652 200.849 239.652 200.849L241.881 192.138Z" fill="#6C6C6C"/>
<path d="M214.029 207.671C212.66 199.744 217.163 191.554 219.487 186.967C219.487 186.967 213.539 185.297 213.739 185.36L212.222 188.349C212.222 188.349 206.595 197.65 207.269 205.598C207.943 213.545 211.656 217.355 211.656 217.355C211.656 217.355 221.603 227.928 228.983 231.829C231.31 233.059 236 235.021 241.815 233.139C231.907 232.091 229.47 228.908 224.007 223.731C218.586 218.594 215.275 214.886 214.029 207.671Z" fill="#BEC1C9"/>
</g>
<g filter="url(#filter5_i_38_14)">
<path d="M157.567 226.608L183.286 213.43C183.286 213.43 193.939 224.449 194.406 233.252C194.84 241.422 191.847 246.331 186.781 253.006C181.547 259.905 177.624 266.176 168.737 266.421C163.077 266.576 158.586 265.858 155.239 261.553C151.434 256.657 154.822 248.061 155.606 245.868C156.391 243.676 161.788 234.546 161.788 234.546L157.567 226.608Z" fill="#6C6C6C"/>
<path d="M189.124 232.978C187.826 225.533 182.404 219.057 178.584 215.9L183.342 213.328C186.904 216.834 192.303 223.926 193.967 230.481C195.632 237.036 194.182 239.43 193.382 242.247C192.583 245.064 184.283 260.046 175.886 264.676C172.237 266.689 170.265 266.591 165.727 266.469C161.189 266.347 160.285 264.983 160.285 264.983C162.982 266.576 168.823 265.985 175.983 261.275C183.143 256.565 191.188 244.819 189.124 232.978Z" fill="#BEC1C9"/>
</g>
<g filter="url(#filter6_dii_38_14)">
<path d="M143.695 209.901C136.342 195.682 138.599 179.984 138.739 169.454C139.867 169.316 144.333 168.878 153.18 168.229C164.237 167.418 186.463 157.354 193.431 153.51C199.004 150.435 205.497 146.141 208.047 144.379C207.992 143.932 211.236 144.26 224.651 149.142C241.419 155.244 247.34 166.209 247.963 171.298C248.462 175.37 244.363 187.055 242.251 192.389L213.1 185.629L214.934 177.248C213.796 177.297 210.296 177.218 205.403 176.512C200.511 175.807 192.051 174.161 188.432 173.426L184.533 176.622L176.814 197.687L184.106 212.834L156.951 227.036C154.324 224.277 147.554 217.364 143.695 209.901Z" fill="#D6DADE"/>
<g filter="url(#filter7_i_38_14)">
<path d="M172.958 202.408C174.362 205.805 176.712 211.508 178.586 215.9L184.215 212.988L176.939 198.04L184.258 177.246C184.258 177.246 183.071 178.306 182.509 179.128C181.852 180.089 180.979 181.766 180.012 183.464C179.312 184.694 178.231 186.621 178.231 186.621C178.231 186.621 171.555 199.011 172.958 202.408Z" fill="#BEC1C9"/>
</g>
<g filter="url(#filter8_i_38_14)">
<path d="M146.142 196.017C145.359 185.642 149.789 168.964 149.789 168.964L138.589 169.48L138.243 176.418C138.243 176.418 137.859 186.289 138.416 191.969C139.032 198.266 139.561 201.343 141.815 206.744C142.783 209.065 143.467 210.316 144.729 212.503C148.367 218.813 156.53 227.098 156.53 227.098C156.53 227.098 147.104 208.756 146.142 196.017Z" fill="#BEC1C9"/>
</g>
<path d="M217.299 182.163L214.892 177.094L213.067 185.671C215.233 186.222 219.651 187.361 219.399 187.175L217.299 182.163Z" fill="#BEC1C9"/>
</g>
<g filter="url(#filter9_ii_38_14)">
<path d="M43.8668 112.571C40.7127 109.924 40.4353 108.621 40.4353 108.621C40.4353 108.621 56.7961 87.1141 57.8868 86.6894C61.3124 85.3557 64.1153 87.059 66.3539 89.3556C68.5926 91.6522 48.1702 116.182 43.8668 112.571Z" fill="#6C6C6C"/>
<path d="M44.0851 112.692C41.7338 111.773 39.9784 109.116 40.4598 108.448C40.9411 107.78 43.5657 104.356 43.5657 104.356C43.5657 104.356 54.3477 105.002 55.6804 104.205C53.6051 106.724 49.1567 114.673 44.0851 112.692Z" fill="#BEC1C9"/>
</g>
<g filter="url(#filter10_di_38_14)">
<g filter="url(#filter11_i_38_14)">
<path d="M138.527 169.369C137.076 166.874 135.169 163.532 134.921 163.286C134.672 163.04 153.512 162.506 165.881 158.72C183.197 153.421 195.94 145.132 205.618 138.509L208.128 144.5C203.228 148.091 196.29 154.395 171.859 163.906C158.903 168.949 145.964 169.365 138.527 169.369Z" fill="#6C6C6C"/>
</g>
<path d="M149.788 168.964C149.788 168.964 145.02 163.703 144.105 162.456L134.864 163.17L138.588 169.48C143.729 169.641 149.788 168.964 149.788 168.964Z" fill="#BEC1C9"/>
</g>
<g filter="url(#filter12_i_38_14)">
<rect width="67.4201" height="81.9166" rx="17" transform="matrix(0.951546 -0.305024 0.324173 0.946883 68.1824 68.1559)" fill="#D6DADE"/>
<path d="M98.3275 121.371C105 138.421 107.614 138.504 118.979 137.95C118.979 137.95 105.775 142.728 101.712 143.524C97.6484 144.32 93.7905 142.615 92.7243 140.352C91.6582 138.089 71.852 82.26 70.6446 76.8871C69.4372 71.5143 69.3021 68.2968 75.252 65.9596C83.8763 63.2119 84.5738 62.9274 93.1981 60.1797C87.4747 62.0032 84.1473 65.1723 83.1327 70.4249C82.7366 72.4752 83.358 75.7443 83.358 75.7443C83.358 75.7443 91.6547 104.322 98.3275 121.371Z" fill="#BEC1C9"/>
</g>
<g filter="url(#filter13_i_38_14)">
<g filter="url(#filter14_d_38_14)">
<path d="M77.4251 130.315C65.0274 125.785 56.1678 117.151 49.682 111.692L65.3058 92.1061C65.5375 92.4402 68.117 94.6864 70.0915 96.1417C78.0096 101.978 84.0375 107.818 93.8346 105.467C99.5213 104.103 106.294 97.4159 106.294 97.4159C106.294 97.4159 114.325 91.357 116.597 90.4442C120.559 90.8652 131.237 91.3151 142.259 89.7472C153.282 88.1793 170.361 78.6013 177.522 74.0083C177.457 73.4725 177.872 72.6604 180.059 73.6975C182.792 74.9938 196.694 92.5705 201.616 107.216C205.619 119.127 205.521 139.091 205.521 139.091C205.886 138.956 201.635 142.336 199 144.24C183.194 155.663 158.264 162.009 152.031 162.501C147.044 162.894 138.735 162.951 135.205 162.931C133.651 159.587 127.467 146.479 127.467 146.479C127.467 146.479 122.565 134.482 121.651 131.694C120.567 132.189 112.718 134.121 106.844 134.596C95.2301 135.535 88.2506 134.271 77.4251 130.315Z" fill="#D6DADE"/>
</g>
<g filter="url(#filter15_di_38_14)">
<path d="M71.533 122.061C63.2644 117.813 52.4759 108.112 52.4759 108.112L49.1727 111.507C52.573 114.353 60.0393 121.325 67.2084 125.666C76.1697 131.094 82.9886 133.045 91.7591 134.61C103.969 136.788 114.909 133.984 121.094 132.32C121.678 133.971 125.419 142.721 126.633 145.542C130.576 154.7 134.946 163.209 134.946 163.209L146.015 162.985C145.336 162.887 142.393 161.257 140.535 159.592C138.602 157.861 136.776 153.811 135.245 150.599C132.829 145.532 124.694 126.113 124.694 126.113C124.694 126.113 108.547 130.705 98.265 130.155C86.4794 129.525 81.1585 127.005 71.533 122.061Z" fill="#BEC1C9"/>
</g>
</g>
<g filter="url(#filter16_di_38_14)">
<path d="M131.597 118.471C128.986 112.631 131.87 105.824 138.038 103.267L167.634 90.9979C173.802 88.4409 180.919 91.1021 183.53 96.9417L194.639 121.79C197.25 127.63 194.367 134.436 188.198 136.993L158.602 149.262C152.434 151.819 145.317 149.158 142.706 143.319L131.597 118.471Z" fill="#D6DADE"/>
</g>
<g filter="url(#filter17_i_38_14)">
<ellipse rx="10.4094" ry="6.72085" transform="matrix(0.382018 0.911883 -0.941868 0.366669 156.001 127.487)" fill="#6C6C6C"/>
<path d="M150.219 122.092C148.357 123.655 148.893 127.66 148.893 127.66C148.893 127.66 148.487 127.074 148.471 124.214C148.455 121.354 148.547 120.613 150.089 119.148C151.007 118.275 151.509 117.867 153.003 117.632C160.524 116.448 163.906 127.625 163.015 129.587C163.015 129.587 156.525 116.799 150.219 122.092Z" fill="#BEC1C9"/>
</g>
<g filter="url(#filter18_i_38_14)">
<path d="M154.022 127.018C154.022 127.018 154.782 126.553 155.33 126.508C156.446 126.417 157.723 127.98 157.723 127.98C157.723 127.98 156.602 134.473 155.645 138.159C154.688 141.846 153.132 147.034 149.678 151.775C146.713 155.846 144.608 158.046 140.24 160.736C132.166 165.707 125.874 166.129 116.346 165.472C107.273 164.847 102.407 163.691 93.9693 158.085C85.5318 152.48 80.818 138.152 78.3706 130.695L86.3823 132.862C86.41 133.332 86.3276 133.968 86.4126 134.597C86.9737 138.751 87.3049 140.36 88.7388 143.783C89.7542 146.206 92.1809 150.591 97.207 153.701C102.03 156.686 108.73 159.257 114.096 160.101C122.85 161.479 130.111 161.043 137.768 156.652C143.17 153.555 145.66 149.232 148.658 143.282C150.753 139.123 152.654 132.836 152.654 132.836L154.022 127.018Z" fill="#6C6C6C"/>
<g filter="url(#filter19_d_38_14)">
<path d="M154.11 144.426C156.109 138.852 157.898 127.751 157.898 127.751C157.898 127.751 157.262 127.045 156.725 126.766C156.212 126.5 155.288 126.364 155.288 126.364L153.68 134.505C153.68 134.505 151.331 145.838 147.218 151.03C140.797 159.136 133.996 162.883 123.543 164.229C112.682 165.627 100.72 159.319 95.5397 155.998C85.0311 149.262 83.0681 131.438 83.0681 131.438L77.7109 130.135C77.7109 130.135 81.6231 147.598 90.3562 155.114C100.903 164.19 111.477 168.853 126.852 166.094C140.535 163.639 150.35 154.912 154.11 144.426Z" fill="#BEC1C9"/>
</g>
</g>
<g filter="url(#filter20_i_38_14)">
<path d="M221.501 73.9937C221.501 73.9937 218.723 65.0381 219.599 60.289C217.262 58.2898 215.958 57.1624 213.615 55.1699C210.514 52.5327 206.599 50.453 206.599 50.453C206.599 50.453 205.526 49.398 205.926 47.932C206.575 45.5505 208.299 44.2847 210.792 43.6311C213.093 43.0279 216.595 44.6393 216.595 44.6393L227.116 52.7973L232.407 51.263C236.467 51.0283 238.162 54.8079 243.33 56.1411C245.011 56.5747 244.485 58.4164 245.629 59.8114C248.722 60.8908 250.596 66.3779 252.74 67.7808C254.883 69.1836 252.251 75.0136 252.251 75.0136C252.251 75.0136 251.03 80.4722 248.632 83.274C246.234 86.0758 244.883 86.7276 244.883 86.7276C241.784 87.7697 235.089 86.5358 235.089 86.5358L221.501 73.9937Z" fill="#6C6C6C"/>
<path d="M241.923 85.7176C237.588 86.9619 231.124 82.9536 231.124 82.9536C231.124 82.9536 234.709 86.5751 235.209 86.6492C235.835 86.7418 241.845 87.9104 244.665 86.8126C247.501 85.7086 249.121 82.9153 249.121 82.9153C249.121 82.9153 250.51 80.7485 251.137 79.2474C251.816 77.6192 252.369 74.923 252.369 74.923C251.057 76.6353 247.09 84.2345 241.923 85.7176Z" fill="#BEC1C9"/>
<g filter="url(#filter21_i_38_14)">
<path d="M226.602 62.4139C225.315 61.1246 225.382 59.0729 226.752 57.8314C230.101 55.5064 231.599 54.0571 233.922 51.3364C235.258 50.1267 237.236 50.232 238.627 51.3339C238.699 51.3906 238.748 51.4692 238.771 51.5556V51.5556C238.878 51.955 238.759 53.5165 238.591 53.8887C238.357 54.408 238.015 55.1651 237.517 56.2675C236.212 59.1596 233.374 61.5729 232.104 62.5536C231.686 62.876 231.212 63.1186 230.69 63.239C229.669 63.4749 227.9 63.7128 227.015 62.8273L226.602 62.4139Z" fill="#6C6C6C"/>
<path d="M236.254 56.279C234.506 59.833 231.218 62.5878 228.346 63.4424C229.326 63.7099 231.093 63.2965 231.528 63.1648C232.07 63.0002 235.142 60.4614 236.86 57.7251C238.578 54.9888 238.643 54.2735 239.01 52.563C239.377 50.8524 236.881 50.5086 236.881 50.5086C236.881 50.5086 237.066 51.2507 237.106 51.7367C237.255 53.5556 237.071 54.6171 236.254 56.279Z" fill="#BEC1C9"/>
<path d="M232.205 67.7524C230.917 66.4631 230.984 64.4114 232.355 63.1699C235.703 60.8449 237.201 59.3956 239.525 56.6749C240.86 55.4652 242.839 55.5705 244.23 56.6724C244.301 56.7291 244.35 56.8077 244.374 56.8941V56.8941C244.481 57.2935 244.362 58.855 244.194 59.2272C243.959 59.7465 243.618 60.5036 243.12 61.606C241.814 64.4981 238.977 66.9114 237.706 67.8921C237.289 68.2145 236.814 68.4571 236.293 68.5775C235.271 68.8134 233.502 69.0513 232.618 68.1658L232.205 67.7524Z" fill="#6C6C6C"/>
<path d="M241.857 61.6174C240.109 65.1714 236.82 67.9263 233.948 68.7808C234.928 69.0483 236.696 68.6349 237.13 68.5032C237.673 68.3386 240.745 65.7998 242.462 63.0635C244.18 60.3272 244.246 59.6119 244.613 57.9014C244.98 56.1909 242.484 55.847 242.484 55.847C242.484 55.847 242.669 56.5892 242.709 57.0751C242.858 58.894 242.674 59.9556 241.857 61.6174Z" fill="#BEC1C9"/>
<path d="M239.047 72.3567C237.874 71.182 237.935 69.3127 239.184 68.1815C242.234 66.0632 243.599 64.7427 245.716 62.2638C246.933 61.1615 248.736 61.2575 250.003 62.2615C250.068 62.3131 250.113 62.3848 250.134 62.4635V62.4635C250.232 62.8274 250.123 64.2501 249.97 64.5892C249.757 65.0624 249.445 65.7522 248.992 66.7566C247.822 69.3489 245.301 71.5189 244.117 72.4395C243.7 72.7633 243.225 73.0079 242.702 73.1242C241.763 73.3334 240.209 73.5206 239.423 72.7334L239.047 72.3567Z" fill="#6C6C6C"/>
<path d="M247.841 66.767C246.249 70.0052 243.252 72.5152 240.636 73.2938C241.529 73.5375 243.139 73.1608 243.535 73.0408C244.029 72.8908 246.828 70.5777 248.393 68.0846C249.958 65.5914 250.018 64.9397 250.352 63.3812C250.687 61.8227 248.412 61.5094 248.412 61.5094C248.412 61.5094 248.581 62.1856 248.617 62.6284C248.753 64.2857 248.586 65.2528 247.841 66.767Z" fill="#BEC1C9"/>
<path d="M243.587 77.617C242.559 76.5876 242.612 74.9495 243.707 73.9582C246.38 72.1019 247.576 70.9448 249.431 68.7725C250.498 67.8066 252.077 67.8907 253.188 68.7705C253.245 68.8157 253.284 68.8785 253.303 68.9475V68.9475C253.388 69.2664 253.293 70.5131 253.159 70.8103C252.972 71.225 252.699 71.8294 252.302 72.7096C251.301 74.9272 249.172 76.7921 248.106 77.6301C247.691 77.956 247.217 78.2009 246.692 78.3107C245.863 78.4842 244.579 78.6103 243.916 77.9471L243.587 77.617Z" fill="#6C6C6C"/>
<path d="M251.293 72.7187C249.898 75.5563 247.272 77.7558 244.979 78.4381C245.761 78.6517 247.173 78.3216 247.519 78.2165C247.953 78.085 250.405 76.058 251.777 73.8733C253.148 71.6885 253.201 71.1174 253.494 69.7517C253.787 68.386 251.794 68.1114 251.794 68.1114C251.794 68.1114 251.942 68.704 251.973 69.092C252.092 70.5442 251.946 71.3918 251.293 72.7187Z" fill="#BEC1C9"/>
</g>
</g>
<g filter="url(#filter22_di_38_14)">
<path d="M99.3292 65.5952C94.586 48.6884 99.033 33.0263 114.104 22.7317C117.771 20.2268 120.163 19.2443 124.355 17.6695C127.299 16.5635 128.972 15.8841 132.083 15.3634C148.018 12.696 164.467 18.8016 173.566 33.3495C184.322 50.5465 187.154 65.7831 174.304 78.7144C168.148 84.9101 158.259 87.3119 149.825 90.131C144.614 91.8727 136.277 93.9659 136.277 93.9659C136.277 93.9659 134.224 94.3426 132.895 94.3802C130.475 94.4488 129.126 94.0322 126.779 93.4982C111.474 90.0162 103.388 80.0616 99.3292 65.5952Z" fill="#D6DADE"/>
<g filter="url(#filter23_i_38_14)">
<path d="M116.019 86.748C121.316 91.6857 131.772 94.0707 131.772 94.0707C131.772 94.0707 126.631 93.9098 122.365 92.2065C118.1 90.5032 115.583 88.9776 112.055 86.3691C103.699 80.191 100.373 71.4544 98.5721 63.9828C96.7708 56.5112 96.2267 49.7379 99.2887 41.3617C103.399 30.1165 110.124 23.229 121.581 18.267C129.191 14.971 138.851 13.4658 147.69 15.7914L152.087 17.2032C152.087 17.2032 141.303 16.5627 135.233 17.6223C128.421 18.8112 124.502 20.5086 118.817 24.3885C113.889 27.7523 108.066 35.0614 108.066 35.0614C108.066 35.0614 103.492 42.4056 102.581 48.0091C101.46 54.9037 102.6 60.6641 104.701 67.31C106.883 74.2109 110.082 81.2133 116.019 86.748Z" fill="#BEC1C9"/>
</g>
<g filter="url(#filter24_i_38_14)">
<path d="M115.065 66.511C110.669 53.7059 107.215 40.0927 123.717 32.7343C133.293 28.464 139.444 26.1924 142.919 25.0378C145.316 24.2415 147.715 23.3263 150.224 23.0385C164.07 21.4509 175.828 40.694 177.386 53.3441C179.557 70.9752 172.389 76.4691 168.844 78.0871C167.748 78.5874 166.502 79.3842 165.377 79.8167V79.8167C163.915 80.3793 161.911 81.3455 158.805 82.5849C152.855 84.9597 152.613 85.6382 141.45 88.5405C127.791 92.0921 119.303 78.8583 115.065 66.511Z" fill="#6C6C6C"/>
</g>
<path d="M159.629 33.49C158.934 32.7448 158.273 31.8641 158.313 30.846C158.358 29.6938 159.269 29.0301 163.858 33.8483C171.146 41.5 174.207 48.815 173.015 58.0724C172.795 59.7767 172.322 61.296 171.863 62.4583C171.249 64.0154 169.809 65.3868 168.16 65.0946C167.722 65.0169 167.48 64.7927 167.734 64.2961C172.336 55.2963 168.574 45.7615 162.715 37.1765C161.914 36.0031 160.571 34.5002 159.629 33.49Z" fill="white"/>
</g>
<g filter="url(#filter25_i_38_14)">
<path d="M176.994 137.372C169.721 145.204 151.857 150.005 151.857 150.005C151.857 150.005 152.887 150.363 153.93 150.29C169.715 149.184 189.613 137.339 192.027 134.962C194.441 132.585 196.655 128.875 196.003 125.29C195.379 121.864 193.103 117.727 191.057 112.952C187.958 105.72 185.377 97.5188 182.455 94.7083C179.534 91.8978 177.979 91.6838 177.979 91.6838C177.979 91.6838 181.071 93.7367 182.573 96.5309C186.987 104.741 188 111.721 185.598 121.859C184.021 128.516 181.774 132.224 176.994 137.372Z" fill="#BEC1C9"/>
</g>
</g>
<defs>
<filter id="filter0_d_38_14" x="6.82031" y="14.6672" width="250.76" height="259.856" filterUnits="userSpaceOnUse" color-interpolation-filters="sRGB">
<feFlood flood-opacity="0" result="BackgroundImageFix"/>
<feColorMatrix in="SourceAlpha" type="matrix" values="0 0 0 0 0 0 0 0 0 0 0 0 0 0 0 0 0 0 127 0" result="hardAlpha"/>
<feOffset dy="4"/>
<feGaussianBlur stdDeviation="2"/>
<feComposite in2="hardAlpha" operator="out"/>
<feColorMatrix type="matrix" values="0 0 0 0 0 0 0 0 0 0 0 0 0 0 0 0 0 0 0.25 0"/>
<feBlend mode="normal" in2="BackgroundImageFix" result="effect1_dropShadow_38_14"/>
<feBlend mode="normal" in="SourceGraphic" in2="effect1_dropShadow_38_14" result="shape"/>
</filter>
<filter id="filter1_i_38_14" x="10.8203" y="62.7505" width="45.3391" height="41.8896" filterUnits="userSpaceOnUse" color-interpolation-filters="sRGB">
<feFlood flood-opacity="0" result="BackgroundImageFix"/>
<feBlend mode="normal" in="SourceGraphic" in2="BackgroundImageFix" result="shape"/>
<feColorMatrix in="SourceAlpha" type="matrix" values="0 0 0 0 0 0 0 0 0 0 0 0 0 0 0 0 0 0 127 0" result="hardAlpha"/>
<feOffset dy="4"/>
<feComposite in2="hardAlpha" operator="arithmetic" k2="-1" k3="1"/>
<feColorMatrix type="matrix" values="0 0 0 0 1 0 0 0 0 1 0 0 0 0 1 0 0 0 1 0"/>
<feBlend mode="normal" in2="shape" result="effect1_innerShadow_38_14"/>
</filter>
<filter id="filter2_i_38_14" x="211.214" y="71.3336" width="27.1968" height="23.9917" filterUnits="userSpaceOnUse" color-interpolation-filters="sRGB">
<feFlood flood-opacity="0" result="BackgroundImageFix"/>
<feBlend mode="normal" in="SourceGraphic" in2="BackgroundImageFix" result="shape"/>
<feColorMatrix in="SourceAlpha" type="matrix" values="0 0 0 0 0 0 0 0 0 0 0 0 0 0 0 0 0 0 127 0" result="hardAlpha"/>
<feOffset dx="-2" dy="-4"/>
<feComposite in2="hardAlpha" operator="arithmetic" k2="-1" k3="1"/>
<feColorMatrix type="matrix" values="0 0 0 0 1 0 0 0 0 1 0 0 0 0 1 0 0 0 1 0"/>
<feBlend mode="normal" in2="shape" result="effect1_innerShadow_38_14"/>
</filter>
<filter id="filter3_ii_38_14" x="176.433" y="71.3038" width="57.1279" height="40.9978" filterUnits="userSpaceOnUse" color-interpolation-filters="sRGB">
<feFlood flood-opacity="0" result="BackgroundImageFix"/>
<feBlend mode="normal" in="SourceGraphic" in2="BackgroundImageFix" result="shape"/>
<feColorMatrix in="SourceAlpha" type="matrix" values="0 0 0 0 0 0 0 0 0 0 0 0 0 0 0 0 0 0 127 0" result="hardAlpha"/>
<feOffset dy="4"/>
<feComposite in2="hardAlpha" operator="arithmetic" k2="-1" k3="1"/>
<feColorMatrix type="matrix" values="0 0 0 0 1 0 0 0 0 1 0 0 0 0 1 0 0 0 1 0"/>
<feBlend mode="normal" in2="shape" result="effect1_innerShadow_38_14"/>
<feColorMatrix in="SourceAlpha" type="matrix" values="0 0 0 0 0 0 0 0 0 0 0 0 0 0 0 0 0 0 127 0" result="hardAlpha"/>
<feOffset dy="-2"/>
<feComposite in2="hardAlpha" operator="arithmetic" k2="-1" k3="1"/>
<feColorMatrix type="matrix" values="0 0 0 0 1 0 0 0 0 1 0 0 0 0 1 0 0 0 1 0"/>
<feBlend mode="normal" in2="effect1_innerShadow_38_14" result="effect2_innerShadow_38_14"/>
</filter>
<filter id="filter4_i_38_14" x="207.213" y="185.358" width="45.853" height="48.5603" filterUnits="userSpaceOnUse" color-interpolation-filters="sRGB">
<feFlood flood-opacity="0" result="BackgroundImageFix"/>
<feBlend mode="normal" in="SourceGraphic" in2="BackgroundImageFix" result="shape"/>
<feColorMatrix in="SourceAlpha" type="matrix" values="0 0 0 0 0 0 0 0 0 0 0 0 0 0 0 0 0 0 127 0" result="hardAlpha"/>
<feOffset dx="4" dy="1"/>
<feComposite in2="hardAlpha" operator="arithmetic" k2="-1" k3="1"/>
<feColorMatrix type="matrix" values="0 0 0 0 1 0 0 0 0 1 0 0 0 0 1 0 0 0 1 0"/>
<feBlend mode="normal" in2="shape" result="effect1_innerShadow_38_14"/>
</filter>
<filter id="filter5_i_38_14" x="153.467" y="213.327" width="41.2656" height="53.1962" filterUnits="userSpaceOnUse" color-interpolation-filters="sRGB">
<feFlood flood-opacity="0" result="BackgroundImageFix"/>
<feBlend mode="normal" in="SourceGraphic" in2="BackgroundImageFix" result="shape"/>
<feColorMatrix in="SourceAlpha" type="matrix" values="0 0 0 0 0 0 0 0 0 0 0 0 0 0 0 0 0 0 127 0" result="hardAlpha"/>
<feOffset dx="-2" dy="-2"/>
<feComposite in2="hardAlpha" operator="arithmetic" k2="-1" k3="1"/>
<feColorMatrix type="matrix" values="0 0 0 0 1 0 0 0 0 1 0 0 0 0 1 0 0 0 1 0"/>
<feBlend mode="normal" in2="shape" result="effect1_innerShadow_38_14"/>
</filter>
<filter id="filter6_dii_38_14" x="134.114" y="144.234" width="117.891" height="90.8641" filterUnits="userSpaceOnUse" color-interpolation-filters="sRGB">
<feFlood flood-opacity="0" result="BackgroundImageFix"/>
<feColorMatrix in="SourceAlpha" type="matrix" values="0 0 0 0 0 0 0 0 0 0 0 0 0 0 0 0 0 0 127 0" result="hardAlpha"/>
<feOffset dy="4"/>
<feGaussianBlur stdDeviation="2"/>
<feComposite in2="hardAlpha" operator="out"/>
<feColorMatrix type="matrix" values="0 0 0 0 0 0 0 0 0 0 0 0 0 0 0 0 0 0 0.25 0"/>
<feBlend mode="normal" in2="BackgroundImageFix" result="effect1_dropShadow_38_14"/>
<feBlend mode="normal" in="SourceGraphic" in2="effect1_dropShadow_38_14" result="shape"/>
<feColorMatrix in="SourceAlpha" type="matrix" values="0 0 0 0 0 0 0 0 0 0 0 0 0 0 0 0 0 0 127 0" result="hardAlpha"/>
<feOffset dy="-3"/>
<feComposite in2="hardAlpha" operator="arithmetic" k2="-1" k3="1"/>
<feColorMatrix type="matrix" values="0 0 0 0 1 0 0 0 0 1 0 0 0 0 1 0 0 0 1 0"/>
<feBlend mode="normal" in2="shape" result="effect2_innerShadow_38_14"/>
<feColorMatrix in="SourceAlpha" type="matrix" values="0 0 0 0 0 0 0 0 0 0 0 0 0 0 0 0 0 0 127 0" result="hardAlpha"/>
<feOffset dx="-3" dy="1"/>
<feComposite in2="hardAlpha" operator="arithmetic" k2="-1" k3="1"/>
<feColorMatrix type="matrix" values="0 0 0 0 1 0 0 0 0 1 0 0 0 0 1 0 0 0 1 0"/>
<feBlend mode="normal" in2="effect2_innerShadow_38_14" result="effect3_innerShadow_38_14"/>
</filter>
<filter id="filter7_i_38_14" x="172.764" y="177.246" width="11.4932" height="38.6544" filterUnits="userSpaceOnUse" color-interpolation-filters="sRGB">
<feFlood flood-opacity="0" result="BackgroundImageFix"/>
<feBlend mode="normal" in="SourceGraphic" in2="BackgroundImageFix" result="shape"/>
<feColorMatrix in="SourceAlpha" type="matrix" values="0 0 0 0 0 0 0 0 0 0 0 0 0 0 0 0 0 0 127 0" result="hardAlpha"/>
<feOffset dx="-2" dy="1"/>
<feComposite in2="hardAlpha" operator="arithmetic" k2="-1" k3="1"/>
<feColorMatrix type="matrix" values="0 0 0 0 1 0 0 0 0 1 0 0 0 0 1 0 0 0 1 0"/>
<feBlend mode="normal" in2="shape" result="effect1_innerShadow_38_14"/>
</filter>
<filter id="filter8_i_38_14" x="138.114" y="168.964" width="18.4155" height="58.1338" filterUnits="userSpaceOnUse" color-interpolation-filters="sRGB">
<feFlood flood-opacity="0" result="BackgroundImageFix"/>
<feBlend mode="normal" in="SourceGraphic" in2="BackgroundImageFix" result="shape"/>
<feColorMatrix in="SourceAlpha" type="matrix" values="0 0 0 0 0 0 0 0 0 0 0 0 0 0 0 0 0 0 127 0" result="hardAlpha"/>
<feOffset dx="2"/>
<feComposite in2="hardAlpha" operator="arithmetic" k2="-1" k3="1"/>
<feColorMatrix type="matrix" values="0 0 0 0 1 0 0 0 0 1 0 0 0 0 1 0 0 0 1 0"/>
<feBlend mode="normal" in2="shape" result="effect1_innerShadow_38_14"/>
</filter>
<filter id="filter9_ii_38_14" x="40.3799" y="86.2201" width="26.145" height="26.7855" filterUnits="userSpaceOnUse" color-interpolation-filters="sRGB">
<feFlood flood-opacity="0" result="BackgroundImageFix"/>
<feBlend mode="normal" in="SourceGraphic" in2="BackgroundImageFix" result="shape"/>
<feColorMatrix in="SourceAlpha" type="matrix" values="0 0 0 0 0 0 0 0 0 0 0 0 0 0 0 0 0 0 127 0" result="hardAlpha"/>
<feOffset dy="-4"/>
<feComposite in2="hardAlpha" operator="arithmetic" k2="-1" k3="1"/>
<feColorMatrix type="matrix" values="0 0 0 0 1 0 0 0 0 1 0 0 0 0 1 0 0 0 1 0"/>
<feBlend mode="normal" in2="shape" result="effect1_innerShadow_38_14"/>
<feColorMatrix in="SourceAlpha" type="matrix" values="0 0 0 0 0 0 0 0 0 0 0 0 0 0 0 0 0 0 127 0" result="hardAlpha"/>
<feOffset dx="-5" dy="3"/>
<feComposite in2="hardAlpha" operator="arithmetic" k2="-1" k3="1"/>
<feColorMatrix type="matrix" values="0 0 0 0 1 0 0 0 0 1 0 0 0 0 1 0 0 0 1 0"/>
<feBlend mode="normal" in2="effect1_innerShadow_38_14" result="effect2_innerShadow_38_14"/>
</filter>
<filter id="filter10_di_38_14" x="130.864" y="138.509" width="81.2642" height="38.996" filterUnits="userSpaceOnUse" color-interpolation-filters="sRGB">
<feFlood flood-opacity="0" result="BackgroundImageFix"/>
<feColorMatrix in="SourceAlpha" type="matrix" values="0 0 0 0 0 0 0 0 0 0 0 0 0 0 0 0 0 0 127 0" result="hardAlpha"/>
<feOffset dy="4"/>
<feGaussianBlur stdDeviation="2"/>
<feComposite in2="hardAlpha" operator="out"/>
<feColorMatrix type="matrix" values="0 0 0 0 0 0 0 0 0 0 0 0 0 0 0 0 0 0 0.25 0"/>
<feBlend mode="normal" in2="BackgroundImageFix" result="effect1_dropShadow_38_14"/>
<feBlend mode="normal" in="SourceGraphic" in2="effect1_dropShadow_38_14" result="shape"/>
<feColorMatrix in="SourceAlpha" type="matrix" values="0 0 0 0 0 0 0 0 0 0 0 0 0 0 0 0 0 0 127 0" result="hardAlpha"/>
<feOffset dy="4"/>
<feComposite in2="hardAlpha" operator="arithmetic" k2="-1" k3="1"/>
<feColorMatrix type="matrix" values="0 0 0 0 1 0 0 0 0 1 0 0 0 0 1 0 0 0 1 0"/>
<feBlend mode="normal" in2="shape" result="effect2_innerShadow_38_14"/>
</filter>
<filter id="filter11_i_38_14" x="134.918" y="138.509" width="73.2095" height="30.8604" filterUnits="userSpaceOnUse" color-interpolation-filters="sRGB">
<feFlood flood-opacity="0" result="BackgroundImageFix"/>
<feBlend mode="normal" in="SourceGraphic" in2="BackgroundImageFix" result="shape"/>
<feColorMatrix in="SourceAlpha" type="matrix" values="0 0 0 0 0 0 0 0 0 0 0 0 0 0 0 0 0 0 127 0" result="hardAlpha"/>
<feOffset dy="4"/>
<feComposite in2="hardAlpha" operator="arithmetic" k2="-1" k3="1"/>
<feColorMatrix type="matrix" values="0 0 0 0 0 0 0 0 0 0 0 0 0 0 0 0 0 0 0.25 0"/>
<feBlend mode="normal" in2="shape" result="effect1_innerShadow_38_14"/>
</filter>
<filter id="filter12_i_38_14" x="69.979" y="51.9573" width="84.3184" height="91.7652" filterUnits="userSpaceOnUse" color-interpolation-filters="sRGB">
<feFlood flood-opacity="0" result="BackgroundImageFix"/>
<feBlend mode="normal" in="SourceGraphic" in2="BackgroundImageFix" result="shape"/>
<feColorMatrix in="SourceAlpha" type="matrix" values="0 0 0 0 0 0 0 0 0 0 0 0 0 0 0 0 0 0 127 0" result="hardAlpha"/>
<feOffset dy="4"/>
<feComposite in2="hardAlpha" operator="arithmetic" k2="-1" k3="1"/>
<feColorMatrix type="matrix" values="0 0 0 0 1 0 0 0 0 1 0 0 0 0 1 0 0 0 1 0"/>
<feBlend mode="normal" in2="shape" result="effect1_innerShadow_38_14"/>
</filter>
<filter id="filter13_i_38_14" x="49.1729" y="73.197" width="156.371" height="90.0124" filterUnits="userSpaceOnUse" color-interpolation-filters="sRGB">
<feFlood flood-opacity="0" result="BackgroundImageFix"/>
<feBlend mode="normal" in="SourceGraphic" in2="BackgroundImageFix" result="shape"/>
<feColorMatrix in="SourceAlpha" type="matrix" values="0 0 0 0 0 0 0 0 0 0 0 0 0 0 0 0 0 0 127 0" result="hardAlpha"/>
<feOffset dx="-3" dy="3"/>
<feComposite in2="hardAlpha" operator="arithmetic" k2="-1" k3="1"/>
<feColorMatrix type="matrix" values="0 0 0 0 1 0 0 0 0 1 0 0 0 0 1 0 0 0 1 0"/>
<feBlend mode="normal" in2="shape" result="effect1_innerShadow_38_14"/>
</filter>
<filter id="filter14_d_38_14" x="45.6821" y="65.197" width="163.861" height="97.7375" filterUnits="userSpaceOnUse" color-interpolation-filters="sRGB">
<feFlood flood-opacity="0" result="BackgroundImageFix"/>
<feColorMatrix in="SourceAlpha" type="matrix" values="0 0 0 0 0 0 0 0 0 0 0 0 0 0 0 0 0 0 127 0" result="hardAlpha"/>
<feOffset dy="-4"/>
<feGaussianBlur stdDeviation="2"/>
<feComposite in2="hardAlpha" operator="out"/>
<feColorMatrix type="matrix" values="0 0 0 0 0 0 0 0 0 0 0 0 0 0 0 0 0 0 0.25 0"/>
<feBlend mode="normal" in2="BackgroundImageFix" result="effect1_dropShadow_38_14"/>
<feBlend mode="normal" in="SourceGraphic" in2="effect1_dropShadow_38_14" result="shape"/>
</filter>
<filter id="filter15_di_38_14" x="45.1729" y="108.112" width="104.842" height="63.0978" filterUnits="userSpaceOnUse" color-interpolation-filters="sRGB">
<feFlood flood-opacity="0" result="BackgroundImageFix"/>
<feColorMatrix in="SourceAlpha" type="matrix" values="0 0 0 0 0 0 0 0 0 0 0 0 0 0 0 0 0 0 127 0" result="hardAlpha"/>
<feOffset dy="4"/>
<feGaussianBlur stdDeviation="2"/>
<feComposite in2="hardAlpha" operator="out"/>
<feColorMatrix type="matrix" values="0 0 0 0 0 0 0 0 0 0 0 0 0 0 0 0 0 0 0.25 0"/>
<feBlend mode="normal" in2="BackgroundImageFix" result="effect1_dropShadow_38_14"/>
<feBlend mode="normal" in="SourceGraphic" in2="effect1_dropShadow_38_14" result="shape"/>
<feColorMatrix in="SourceAlpha" type="matrix" values="0 0 0 0 0 0 0 0 0 0 0 0 0 0 0 0 0 0 127 0" result="hardAlpha"/>
<feOffset dx="3" dy="-4"/>
<feComposite in2="hardAlpha" operator="arithmetic" k2="-1" k3="1"/>
<feColorMatrix type="matrix" values="0 0 0 0 1 0 0 0 0 1 0 0 0 0 1 0 0 0 1 0"/>
<feBlend mode="normal" in2="shape" result="effect2_innerShadow_38_14"/>
</filter>
<filter id="filter16_di_38_14" x="126.635" y="90.0258" width="72.9673" height="68.2088" filterUnits="userSpaceOnUse" color-interpolation-filters="sRGB">
<feFlood flood-opacity="0" result="BackgroundImageFix"/>
<feColorMatrix in="SourceAlpha" type="matrix" values="0 0 0 0 0 0 0 0 0 0 0 0 0 0 0 0 0 0 127 0" result="hardAlpha"/>
<feOffset dy="4"/>
<feGaussianBlur stdDeviation="2"/>
<feComposite in2="hardAlpha" operator="out"/>
<feColorMatrix type="matrix" values="0 0 0 0 0 0 0 0 0 0 0 0 0 0 0 0 0 0 0.25 0"/>
<feBlend mode="normal" in2="BackgroundImageFix" result="effect1_dropShadow_38_14"/>
<feBlend mode="normal" in="SourceGraphic" in2="effect1_dropShadow_38_14" result="shape"/>
<feColorMatrix in="SourceAlpha" type="matrix" values="0 0 0 0 0 0 0 0 0 0 0 0 0 0 0 0 0 0 127 0" result="hardAlpha"/>
<feOffset dx="4" dy="4"/>
<feComposite in2="hardAlpha" operator="arithmetic" k2="-1" k3="1"/>
<feColorMatrix type="matrix" values="0 0 0 0 1 0 0 0 0 1 0 0 0 0 1 0 0 0 1 0"/>
<feBlend mode="normal" in2="shape" result="effect2_innerShadow_38_14"/>
</filter>
<filter id="filter17_i_38_14" x="148.47" y="117.544" width="15.0078" height="19.7521" filterUnits="userSpaceOnUse" color-interpolation-filters="sRGB">
<feFlood flood-opacity="0" result="BackgroundImageFix"/>
<feBlend mode="normal" in="SourceGraphic" in2="BackgroundImageFix" result="shape"/>
<feColorMatrix in="SourceAlpha" type="matrix" values="0 0 0 0 0 0 0 0 0 0 0 0 0 0 0 0 0 0 127 0" result="hardAlpha"/>
<feOffset dy="4"/>
<feComposite in2="hardAlpha" operator="arithmetic" k2="-1" k3="1"/>
<feColorMatrix type="matrix" values="0 0 0 0 1 0 0 0 0 1 0 0 0 0 1 0 0 0 1 0"/>
<feBlend mode="normal" in2="shape" result="effect1_innerShadow_38_14"/>
</filter>
<filter id="filter18_i_38_14" x="77.7109" y="126.364" width="80.1875" height="40.5194" filterUnits="userSpaceOnUse" color-interpolation-filters="sRGB">
<feFlood flood-opacity="0" result="BackgroundImageFix"/>
<feBlend mode="normal" in="SourceGraphic" in2="BackgroundImageFix" result="shape"/>
<feColorMatrix in="SourceAlpha" type="matrix" values="0 0 0 0 0 0 0 0 0 0 0 0 0 0 0 0 0 0 127 0" result="hardAlpha"/>
<feOffset dx="6" dy="4"/>
<feComposite in2="hardAlpha" operator="arithmetic" k2="-1" k3="1"/>
<feColorMatrix type="matrix" values="0 0 0 0 1 0 0 0 0 1 0 0 0 0 1 0 0 0 1 0"/>
<feBlend mode="normal" in2="shape" result="effect1_innerShadow_38_14"/>
</filter>
<filter id="filter19_d_38_14" x="73.7109" y="126.364" width="88.1875" height="48.5194" filterUnits="userSpaceOnUse" color-interpolation-filters="sRGB">
<feFlood flood-opacity="0" result="BackgroundImageFix"/>
<feColorMatrix in="SourceAlpha" type="matrix" values="0 0 0 0 0 0 0 0 0 0 0 0 0 0 0 0 0 0 127 0" result="hardAlpha"/>
<feOffset dy="4"/>
<feGaussianBlur stdDeviation="2"/>
<feComposite in2="hardAlpha" operator="out"/>
<feColorMatrix type="matrix" values="0 0 0 0 0 0 0 0 0 0 0 0 0 0 0 0 0 0 0.25 0"/>
<feBlend mode="normal" in2="BackgroundImageFix" result="effect1_dropShadow_38_14"/>
<feBlend mode="normal" in="SourceGraphic" in2="effect1_dropShadow_38_14" result="shape"/>
</filter>
<filter id="filter20_i_38_14" x="205.837" y="43.496" width="47.7437" height="43.7839" filterUnits="userSpaceOnUse" color-interpolation-filters="sRGB">
<feFlood flood-opacity="0" result="BackgroundImageFix"/>
<feBlend mode="normal" in="SourceGraphic" in2="BackgroundImageFix" result="shape"/>
<feColorMatrix in="SourceAlpha" type="matrix" values="0 0 0 0 0 0 0 0 0 0 0 0 0 0 0 0 0 0 127 0" result="hardAlpha"/>
<feOffset dy="4"/>
<feComposite in2="hardAlpha" operator="arithmetic" k2="-1" k3="1"/>
<feColorMatrix type="matrix" values="0 0 0 0 1 0 0 0 0 1 0 0 0 0 1 0 0 0 1 0"/>
<feBlend mode="normal" in2="shape" result="effect1_innerShadow_38_14"/>
</filter>
<filter id="filter21_i_38_14" x="225.679" y="50.4679" width="27.8442" height="28.0407" filterUnits="userSpaceOnUse" color-interpolation-filters="sRGB">
<feFlood flood-opacity="0" result="BackgroundImageFix"/>
<feBlend mode="normal" in="SourceGraphic" in2="BackgroundImageFix" result="shape"/>
<feColorMatrix in="SourceAlpha" type="matrix" values="0 0 0 0 0 0 0 0 0 0 0 0 0 0 0 0 0 0 127 0" result="hardAlpha"/>
<feOffset dy="4"/>
<feComposite in2="hardAlpha" operator="arithmetic" k2="-1" k3="1"/>
<feColorMatrix type="matrix" values="0 0 0 0 1 0 0 0 0 1 0 0 0 0 1 0 0 0 1 0"/>
<feBlend mode="normal" in2="shape" result="effect1_innerShadow_38_14"/>
</filter>
<filter id="filter22_di_38_14" x="93.106" y="14.6672" width="93.7314" height="87.7204" filterUnits="userSpaceOnUse" color-interpolation-filters="sRGB">
<feFlood flood-opacity="0" result="BackgroundImageFix"/>
<feColorMatrix in="SourceAlpha" type="matrix" values="0 0 0 0 0 0 0 0 0 0 0 0 0 0 0 0 0 0 127 0" result="hardAlpha"/>
<feOffset dy="4"/>
<feGaussianBlur stdDeviation="2"/>
<feComposite in2="hardAlpha" operator="out"/>
<feColorMatrix type="matrix" values="0 0 0 0 0 0 0 0 0 0 0 0 0 0 0 0 0 0 0.25 0"/>
<feBlend mode="normal" in2="BackgroundImageFix" result="effect1_dropShadow_38_14"/>
<feBlend mode="normal" in="SourceGraphic" in2="effect1_dropShadow_38_14" result="shape"/>
<feColorMatrix in="SourceAlpha" type="matrix" values="0 0 0 0 0 0 0 0 0 0 0 0 0 0 0 0 0 0 127 0" result="hardAlpha"/>
<feOffset dx="-3" dy="-2"/>
<feComposite in2="hardAlpha" operator="arithmetic" k2="-1" k3="1"/>
<feColorMatrix type="matrix" values="0 0 0 0 1 0 0 0 0 1 0 0 0 0 1 0 0 0 1 0"/>
<feBlend mode="normal" in2="shape" result="effect2_innerShadow_38_14"/>
</filter>
<filter id="filter23_i_38_14" x="97.106" y="14.6672" width="54.981" height="79.4035" filterUnits="userSpaceOnUse" color-interpolation-filters="sRGB">
<feFlood flood-opacity="0" result="BackgroundImageFix"/>
<feBlend mode="normal" in="SourceGraphic" in2="BackgroundImageFix" result="shape"/>
<feColorMatrix in="SourceAlpha" type="matrix" values="0 0 0 0 0 0 0 0 0 0 0 0 0 0 0 0 0 0 127 0" result="hardAlpha"/>
<feOffset dx="3" dy="2"/>
<feComposite in2="hardAlpha" operator="arithmetic" k2="-1" k3="1"/>
<feColorMatrix type="matrix" values="0 0 0 0 1 0 0 0 0 1 0 0 0 0 1 0 0 0 1 0"/>
<feBlend mode="normal" in2="shape" result="effect1_innerShadow_38_14"/>
</filter>
<filter id="filter24_i_38_14" x="111.428" y="22.9462" width="66.3594" height="66.1808" filterUnits="userSpaceOnUse" color-interpolation-filters="sRGB">
<feFlood flood-opacity="0" result="BackgroundImageFix"/>
<feBlend mode="normal" in="SourceGraphic" in2="BackgroundImageFix" result="shape"/>
<feColorMatrix in="SourceAlpha" type="matrix" values="0 0 0 0 0 0 0 0 0 0 0 0 0 0 0 0 0 0 127 0" result="hardAlpha"/>
<feOffset dx="3" dy="3"/>
<feComposite in2="hardAlpha" operator="arithmetic" k2="-1" k3="1"/>
<feColorMatrix type="matrix" values="0 0 0 0 1 0 0 0 0 1 0 0 0 0 1 0 0 0 1 0"/>
<feBlend mode="normal" in2="shape" result="effect1_innerShadow_38_14"/>
</filter>
<filter id="filter25_i_38_14" x="151.857" y="91.6838" width="44.2612" height="58.6161" filterUnits="userSpaceOnUse" color-interpolation-filters="sRGB">
<feFlood flood-opacity="0" result="BackgroundImageFix"/>
<feBlend mode="normal" in="SourceGraphic" in2="BackgroundImageFix" result="shape"/>
<feColorMatrix in="SourceAlpha" type="matrix" values="0 0 0 0 0 0 0 0 0 0 0 0 0 0 0 0 0 0 127 0" result="hardAlpha"/>
<feOffset dx="-2" dy="-2"/>
<feComposite in2="hardAlpha" operator="arithmetic" k2="-1" k3="1"/>
<feColorMatrix type="matrix" values="0 0 0 0 1 0 0 0 0 1 0 0 0 0 1 0 0 0 1 0"/>
<feBlend mode="normal" in2="shape" result="effect1_innerShadow_38_14"/>
</filter>
</defs>
</svg>
