<svg width="380" height="378" viewBox="0 0 380 378" fill="none" xmlns="http://www.w3.org/2000/svg">
<g clip-path="url(#clip0_37_11)">
<path d="M189.985 377.971C294.911 377.971 379.971 293.359 379.971 188.985C379.971 84.6116 294.911 0 189.985 0C85.0593 0 0 84.6116 0 188.985C0 293.359 85.0593 377.971 189.985 377.971Z" fill="url(#paint0_linear_37_11)"/>
<g style="mix-blend-mode:multiply" opacity="0.2">
<path d="M216.573 366.282C174.317 366.275 133.269 352.26 99.916 326.451C66.5631 300.643 42.8083 264.513 32.4062 223.773C22.0042 183.033 25.5481 140.006 42.478 101.494C59.4079 62.9817 88.7581 31.1803 125.889 11.1165C101.248 19.9083 78.6988 33.6692 59.6549 51.5366C40.611 69.4039 25.4833 90.9923 15.2203 114.948C4.95737 138.904 -0.219536 164.71 0.0141658 190.75C0.247867 216.789 5.88716 242.5 16.5785 266.27C27.2698 290.039 42.7826 311.356 62.1441 328.882C81.5057 346.408 104.298 359.766 129.093 368.119C153.888 376.472 180.151 379.639 206.234 377.422C232.317 375.205 257.658 367.651 280.669 355.235C260.103 362.562 238.419 366.299 216.573 366.282V366.282Z" fill="#222226"/>
</g>
<g style="mix-blend-mode:overlay" opacity="0.2">
<path d="M189.99 0.0588023C164.934 0.0304007 140.122 4.94806 116.991 14.5268C87.1909 46.0294 69.1542 86.7461 65.8915 129.881C62.6289 173.016 74.3377 215.959 99.0637 251.542C123.79 287.126 160.037 313.197 201.755 325.404C243.473 337.611 288.138 335.215 328.295 318.617C353.733 291.76 370.711 258.082 377.132 221.738C383.553 185.395 379.137 147.976 364.429 114.1C349.72 80.2243 325.363 51.3732 294.363 31.1069C263.363 10.8407 227.076 0.0462842 189.98 0.0556014L189.99 0.0588023Z" fill="white"/>
</g>
<g style="mix-blend-mode:multiply" opacity="0.8">
<path d="M191.742 0.413673C156.054 0.413674 130.099 6.8683 102.522 21.3912C83.0554 29.4595 60.3446 50.437 55.8362 55.6324C57.2668 60.8417 60.2057 65.3489 64.1757 68.4222C69.1556 72.5063 75.0017 75.0136 81.1154 75.6873C87.2291 76.3609 93.3906 75.1767 98.9688 72.2559C106.649 68.1044 115.509 60.6177 122.506 66.1103C127.17 69.7691 127.848 77.457 131.829 82.04C138.077 89.2322 149.399 85.3285 155.29 77.766C161.18 70.2035 163.86 60.1046 168.86 51.752C181.135 31.2451 204.983 24.5864 226.778 23.1083C233.364 22.6622 240.22 22.5952 246.242 25.6534C252.264 28.7117 257.215 35.7203 256.455 43.1632C255.326 54.2825 242.926 60.5506 241.794 71.6728C240.977 79.696 246.753 87.0311 253.406 89.894C260.059 92.7569 267.405 92.2263 274.513 91.9523C286.818 91.4596 299.693 91.9202 310.553 98.509C321.413 105.098 329.504 119.535 326.236 133.018C323.174 145.665 311.662 153.196 300.525 156.668C289.387 160.14 277.49 161.024 267.177 166.919C253.965 174.461 244.635 189.524 230.728 195.271C222.93 198.492 214.334 198.478 206.474 201.507C198.615 204.536 191.022 212.471 192.064 221.827C193.204 232.083 204.036 237.433 213.097 236.404C222.158 235.375 230.441 230.2 239.355 228.107C253.29 224.827 267.721 229.29 280.986 235.15C289.018 238.695 297.111 242.961 302.899 250.208C308.687 257.456 311.683 268.371 308.146 277.301C303.89 288.056 292.247 292.129 281.872 292.732C271.497 293.336 260.665 291.793 251.07 296.318C241.475 300.843 234.265 314.877 240.174 324.58C244.645 331.921 253.888 332.813 261.676 331.577C269.464 330.341 277.575 327.772 284.988 330.752C291.644 333.425 297.473 340.454 304.434 339.113C308.146 337.951 311.479 335.586 314.026 332.306C330.549 314.714 346.459 301.552 356.5 278.5C370.631 258.539 380.334 209.904 379.5 174.5C378.938 150.536 367.071 121.909 357.643 100.46C349.394 81.6765 335.34 67.1611 321.518 53.2285C314.87 46.5231 294.337 30.5014 286 27C273.661 21.8135 276.49 23.1486 264.5 17C251.055 10.1022 240 7.57348 224.186 3.64091C211.209 0.413673 199.853 0.413673 191.742 0.413673Z" fill="url(#paint1_linear_37_11)"/>
</g>
<g style="mix-blend-mode:multiply" opacity="0.8">
<path d="M147.138 121.477C142.894 123.05 138.485 124.166 133.991 124.804C125.071 125.991 115.771 124.818 107.201 127.501C100.883 129.48 95.4372 133.417 89.5058 136.312C62.0208 149.711 53.5793 117.602 29.7813 116.06C20.8909 115.49 13.9834 119.87 10.0564 127.645C9.5609 131.12 6.81201 137.575 5.18982 145.643L3.7329 157.021C3.3895 159.69 3.58237 162.4 4.30084 164.998C5.3587 168.014 7.7594 170.369 9.5609 173.031C16.4995 183.287 14.0286 196.772 11.5927 208.822C9.15691 220.873 7.43933 234.686 15.3675 244.239C18.9275 248.529 24.0002 251.323 28.9479 254.018C34.8657 257.247 41.7008 260.563 48.1339 258.472C52.3732 257.091 55.496 253.598 59.4054 251.484C63.8938 249.286 69.0892 248.887 73.8762 250.374C78.6631 251.862 82.6601 255.116 85.0089 259.438C86.8578 263.663 87.5485 268.283 87.0134 272.845C86.3732 281.249 83.5626 289.353 82.3857 297.7C81.2088 306.047 81.9211 315.251 87.4193 321.761C94.1822 329.774 106.752 331.408 116.714 327.736C126.675 324.065 134.352 316.088 140.309 307.493C144.616 301.276 149.133 293.962 156.704 292.548C162.135 291.533 168.666 293.702 172.724 290.042C175.283 287.737 175.679 283.974 175.651 280.579C175.554 269.814 173.114 257.978 179.334 249.074C186.556 238.731 177.79 220.339 188.498 213.416C191.002 211.796 204.655 198.766 201.475 192.439C196.609 182.757 182.949 185.26 177.142 184.371C154.432 184.371 157.676 214.353 143.58 218.554C133.626 221.52 123.619 225.64 113.247 224.8C110.538 224.58 107.515 223.782 106.238 221.446C105.484 219.708 105.402 217.762 106.006 215.969C106.979 212.188 108.825 208.673 111.406 205.692C113.986 202.711 117.231 200.342 120.894 198.766C125.746 196.726 131.239 196.124 135.714 193.38C140.19 190.635 143.156 184.334 139.827 180.338C137.137 177.109 132.178 177.257 127.94 176.75C123.703 176.243 118.669 173.345 119.596 169.292C119.986 167.985 120.753 166.814 121.806 165.919C131.209 156.93 146.447 159.214 159.454 157.139C172.747 155.019 187.889 143.903 198.132 136.042C203.402 131.993 215.698 123.061 215.78 115.958C215.901 104.203 199.19 102.644 190.756 104.182C175.298 106.978 161.776 116.216 147.138 121.477Z" fill="url(#paint2_linear_37_11)"/>
</g>
</g>
<defs>
<linearGradient id="paint0_linear_37_11" x1="0" y1="188.985" x2="379.971" y2="188.985" gradientUnits="userSpaceOnUse">
<stop stop-color="#FFEBC5"/>
<stop offset="1" stop-color="#D28E27"/>
</linearGradient>
<linearGradient id="paint1_linear_37_11" x1="217.693" y1="0.413673" x2="217.693" y2="339.281" gradientUnits="userSpaceOnUse">
<stop stop-color="#FFA723"/>
<stop offset="1" stop-color="#74490A" stop-opacity="0"/>
</linearGradient>
<linearGradient id="paint2_linear_37_11" x1="109.674" y1="103.688" x2="109.674" y2="329.6" gradientUnits="userSpaceOnUse">
<stop stop-color="#FFA723"/>
<stop offset="1" stop-color="#74490A" stop-opacity="0"/>
</linearGradient>
<clipPath id="clip0_37_11">
<rect width="380" height="378" fill="white"/>
</clipPath>
</defs>
</svg>
