<svg width="380" height="378" viewBox="0 0 380 378" fill="none" xmlns="http://www.w3.org/2000/svg">
<g clip-path="url(#clip0_28_22)">
<path d="M191.158 378C295.453 378 380 293.898 380 190.153C380 86.4074 295.453 2.30518 191.158 2.30518C86.8642 2.30518 2.31702 86.4074 2.31702 190.153C2.31702 293.898 86.8642 378 191.158 378Z" fill="url(#paint0_linear_28_22)"/>
<g style="mix-blend-mode:multiply" opacity="0.5">
<path d="M102.688 72.7869C100.997 81.2468 101.858 92.6509 109.083 95.1953C111.124 95.6282 113.222 95.5648 115.241 95.0092C117.26 94.4536 119.155 93.4182 120.805 91.9695C130.203 85.2815 137.735 75.5221 147.228 69.034C156.721 62.546 169.803 60.047 178.268 68.2071C187.651 77.294 186.584 94.4956 181.549 107.345C176.718 116.598 173.064 126.598 170.696 137.041C170.158 141.425 170.458 145.892 171.576 150.13C172.695 154.367 174.603 158.273 177.17 161.575C179.787 164.828 183.076 167.269 186.731 168.673C190.387 170.077 194.292 170.399 198.084 169.608C203.749 167.866 208.965 164.581 213.292 160.031C222.155 151.729 230.039 142.134 236.744 131.489C248.956 112.088 259.358 87.4078 279.553 81.5104C286.101 79.8174 292.929 80.2301 299.287 82.7034C305.645 85.1767 311.287 89.615 315.596 95.5315C319.785 101.557 322.659 108.646 323.979 116.209C325.299 123.771 325.027 131.587 323.184 139.003C322.205 143.818 320.078 148.223 317.043 151.725C313.411 155.016 309.144 157.254 304.601 158.249C287.516 161.779 270.775 167.239 254.623 174.551C251.606 175.845 248.864 177.863 246.578 180.47C244.293 183.077 242.516 186.214 241.368 189.672C240.561 196.758 242.012 203.94 245.454 209.891C247.923 216.727 251.954 222.667 257.121 227.083C267.475 234.416 280.833 228.501 291.781 222.494L352.414 189.372C356.578 187.624 360.22 184.544 362.911 180.494C364.587 176.76 365.445 172.611 365.409 168.409C366.839 151.088 366.04 133.62 363.037 116.568C359.967 99.4184 352.213 83.8444 340.906 72.1146C327.459 60.4265 311.348 53.4813 294.532 52.1233C277.933 49.8062 261.018 50.0151 244.522 46.6711C238.336 45.7979 232.396 43.3552 227.132 39.5197C222.89 35.4398 219.02 30.8726 215.584 25.8893C179.739 -18.3459 112.829 22.0091 102.688 72.7869Z" fill="#D16111"/>
</g>
<g style="mix-blend-mode:multiply" opacity="0.5">
<path d="M250.277 137.142C250.658 139.198 251.615 141.066 253.011 142.475C254.407 143.884 256.169 144.76 258.041 144.977C259.377 145.259 260.746 145.282 262.088 145.048C270.771 143.677 278.715 138.848 284.453 131.453C286.315 128.572 287.317 125.11 287.317 121.558C287.317 118.006 286.315 114.544 284.453 111.663C283.309 109.99 281.678 108.816 279.841 108.341C278.014 108.249 276.2 108.719 274.597 109.699C272.993 110.679 271.662 112.131 270.748 113.898C268.964 117.448 266.733 120.694 264.124 123.539C261.471 125.368 258.632 126.839 255.668 127.921C253.97 128.556 252.513 129.813 251.535 131.486C250.557 133.159 250.113 135.152 250.277 137.142V137.142Z" fill="#D16111"/>
</g>
<g style="mix-blend-mode:multiply" opacity="0.5">
<path d="M121.804 127.196C118.749 133.88 117.574 141.57 118.456 149.121C119.103 152.775 120.526 156.173 121.066 159.836C121.865 165.235 120.982 171.712 124.369 175.366C125.506 176.461 126.87 177.161 128.315 177.392C129.76 177.622 131.23 177.373 132.565 176.672C135.225 175.212 137.471 172.849 139.026 169.875C142.489 163.813 144.176 156.541 143.82 149.203C142.867 143.693 142.725 138.026 143.402 132.458C145.571 126.834 148.884 121.956 153.036 118.271C160.25 109.812 165.38 85.7687 149.056 90.5007C137.199 93.9903 126.545 115.056 121.804 127.196Z" fill="#D16111"/>
</g>
<g style="mix-blend-mode:multiply" opacity="0.5">
<path d="M96.9948 122.185C100.789 129.959 102.395 138.896 101.592 147.765C100.107 158.491 93.401 169.027 96.5602 179.263C98.0846 184.181 101.686 187.917 103.392 192.753C107.073 203.143 101.173 214.378 96.3944 224.15C88.0405 238.63 85.0183 256.333 87.9908 273.374C92.161 289.864 109.024 302.617 122.474 295.191C135.245 288.128 138.01 267.793 133.531 252.321C128.587 235.204 118.106 210.924 138.965 201.125C153.443 194.325 168.836 205.488 175.636 219.814C177.72 226.055 181.406 231.417 186.204 235.186C196.835 241.185 209.053 227.632 220.664 230.314C240.132 234.804 241.057 268.956 244.16 286.037C245.174 290.613 245.66 295.323 245.606 300.045C244.69 318.271 228.822 330.043 214.329 337.515C198.501 345.62 182.124 352.224 165.361 357.259C149.749 364.128 132.796 365.92 116.358 362.441C99.9201 358.962 84.6305 350.345 72.163 337.533C57.9464 325.298 43.8958 310.59 38.92 290.946C35.5385 274.076 36.8226 256.411 42.5926 240.422C46.1973 231.063 48.6993 221.191 50.0325 211.069C50.0792 199.393 48.0584 187.829 44.0932 177.081C36.9849 153.592 35.4053 129.757 52.1256 110.795C67.44 93.4597 88.1489 101.832 96.9948 122.185Z" fill="#D16111"/>
</g>
<g style="mix-blend-mode:multiply" opacity="0.5">
<path d="M220.113 199.046C220.612 187.474 200.974 184.206 194.812 188.519C181.694 197.707 188.26 214.514 201.727 214.343C205.869 214.477 209.967 213.3 213.609 210.932C215.411 209.726 216.944 208.015 218.076 205.946C219.208 203.876 219.907 201.509 220.113 199.046V199.046Z" fill="#D16111"/>
</g>
<g style="mix-blend-mode:multiply" opacity="0.2">
<path d="M215.706 354.06C179.114 354.104 143.287 343.689 112.529 324.066C81.7715 304.443 57.3901 276.446 42.314 243.438C27.2379 210.43 22.1084 173.815 27.5412 137.991C32.9741 102.167 48.7385 68.6576 72.9408 41.4877C52.0747 57.6603 34.8531 77.9717 22.3805 101.119C9.90796 124.267 2.45976 149.739 0.513579 175.903C-1.4326 202.067 2.16594 228.345 11.079 253.052C19.992 277.759 34.0226 300.348 52.2707 319.373C70.5187 338.397 92.5814 353.435 117.044 363.523C141.507 373.612 167.829 378.527 194.323 377.955C220.817 377.383 246.898 371.335 270.892 360.2C294.887 349.064 316.266 333.087 333.659 313.293C300.131 339.7 258.55 354.071 215.706 354.06V354.06Z" fill="#222226"/>
</g>
<g style="mix-blend-mode:overlay" opacity="0.39">
<path d="M190.648 2.44849e-05C160.686 0.00371752 131.158 7.15893 104.515 20.8715C76.4516 54.3337 60.8166 96.4742 60.2593 140.151C59.7021 183.827 74.257 226.353 101.458 260.521C128.658 294.689 166.831 318.397 209.507 327.627C252.183 336.857 296.736 331.041 335.615 311.166C358.811 283.56 373.643 249.901 378.368 214.149C383.092 178.397 377.512 142.038 362.283 109.351C347.055 76.6635 322.812 49.007 292.406 29.6351C262 10.2631 226.696 -0.0183124 190.648 2.44849e-05Z" fill="white"/>
</g>
</g>
<defs>
<linearGradient id="paint0_linear_28_22" x1="2.31702" y1="190.153" x2="380" y2="190.153" gradientUnits="userSpaceOnUse">
<stop stop-color="#FFA000"/>
<stop offset="1" stop-color="#FF3D00"/>
</linearGradient>
<clipPath id="clip0_28_22">
<rect width="380" height="378" fill="white"/>
</clipPath>
</defs>
</svg>
