<svg width="380" height="378" viewBox="0 0 380 378" fill="none" xmlns="http://www.w3.org/2000/svg">
<g clip-path="url(#clip0_30_14)">
<path d="M190 378.003C294.934 378.003 380 293.385 380 189.004C380 84.6235 294.934 0.00604248 190 0.00604248C85.0659 0.00604248 0 84.6235 0 189.004C0 293.385 85.0659 378.003 190 378.003Z" fill="url(#paint0_linear_30_14)"/>
<g style="mix-blend-mode:multiply" opacity="0.11">
<path d="M72.2337 140.745C81.3896 145.242 89.6444 152.6 100.328 155.118C113.843 158.041 127.692 158.587 141.362 156.736C167.265 153.638 192.317 144.769 218.069 140.41C232.299 138.002 246.902 136.923 260.375 131.321C275.218 125.137 287.795 113.807 301.897 105.753C315.999 97.6998 333.412 93.1077 347.504 101.173C314.536 112.134 290.451 142.997 260.163 161.077C243.29 171.15 224.665 177.126 207.594 186.749C196.132 193.21 185.162 201.399 172.572 204.362C161.486 206.958 150.001 205.287 138.677 205.386C110.185 205.707 82.6982 217.061 61.007 237.469C88.7269 233.083 116.446 228.702 144.164 224.325C154.644 222.255 165.289 221.393 175.93 221.752C184.449 222.361 192.905 224.533 201.421 223.964C232.197 221.931 255.029 185.587 285.855 185.682C287.006 195.449 279.692 203.666 272.991 210.182C253.64 229.038 233.711 248.257 209.561 258.327C171.783 274.044 129.459 265.149 89.6157 272.314C67.6454 276.257 42.1679 284.14 25.3343 268.053C-0.242401 243.622 16.2412 199.403 26.311 171.816C33.1243 153.165 46.8398 131.638 67.4208 138.708C69.0581 139.288 70.6649 139.968 72.2337 140.745V140.745Z" fill="black"/>
<path d="M140.516 46.6001C124.692 50.5234 108.153 55.7559 91.7 56.9812C76.5378 58.111 63.5756 58.7851 49.1476 64.3837C46.9942 65.2155 44.5954 66.4018 44.2587 68.3732C43.901 70.4751 46.1291 72.2693 48.3409 73.3348C61.4176 79.6698 77.7442 74.9225 92.7498 73.3348C105.59 71.9712 118.609 73.0914 131.54 72.5556C163.455 71.2485 193.375 60.0532 223.912 52.2065C228.789 50.954 233.994 49.7871 238.927 50.8799C243.86 51.9728 248.122 56.2526 246.663 60.3259C245.401 62.7866 243.159 64.8094 240.316 66.0531C197.826 89.5327 143.796 93.795 93.0514 89.6457C85.102 88.9912 74.7959 89.2912 72.0464 95.5405C115.941 110.158 164.939 109.981 208.68 95.0457C221.539 90.5886 235.527 84.7776 248.691 88.5607C249.039 93.569 241.805 96.1852 235.986 97.4651C208.189 103.594 181.317 112.329 155.884 123.504C161.479 131.139 174.97 130.091 185.376 127.895C227.227 119.065 269.663 106.397 300.174 80.9731C306.667 75.5634 312.935 68.4336 311.063 60.9415C309.37 54.1955 301.743 49.8378 294.734 46.1794C280.55 38.7885 266.365 31.3945 252.181 23.9972C229.516 12.1863 225.974 18.0927 206.122 27.2289C186.192 36.4061 162.239 41.2099 140.516 46.6001Z" fill="black"/>
<path d="M362.527 146.91C361.633 141.248 356.141 130.948 349.208 133.518C346.477 134.805 344.106 136.786 342.315 139.276C329.57 154.173 313.953 163.287 296.295 171.379C284.017 171.379 257.953 185.724 246.812 191.718C234.363 198.399 223.18 207.058 210.529 213.907C206.838 215.728 203.359 217.979 200.163 220.617C197.305 223.159 194.98 226.334 191.96 228.678C183.571 235.25 171.935 234.213 161.487 232.86C160.779 233.822 160.468 235.033 160.621 236.231C160.774 237.429 161.379 238.515 162.303 239.254C164.217 240.657 166.489 241.446 168.835 241.52C190.019 243.901 211.427 240.148 230.667 230.681C257.069 218.194 284.588 208.4 312.831 201.436C293.384 228.783 267.373 250.413 237.365 264.193C207.12 278.011 172.948 276.773 141.796 266.429C137.755 264.813 133.585 263.571 129.332 262.716C125.511 262.177 121.597 262.592 117.776 262.054C106.889 260.534 98.2043 251.69 87.5592 248.895C87.1581 260.217 97.4718 268.655 107.29 273.692C112.586 276.688 118.385 278.618 124.377 279.381C128.16 279.298 131.939 279.673 135.638 280.498C146.578 284.185 152.524 294.58 164.493 297.701C181.112 302.036 200.322 300.09 217.008 297.261C246.84 292.158 275.354 280.826 300.81 263.957C297.145 277.122 289.969 288.956 280.104 298.105C270.238 307.254 258.081 313.349 245.022 315.693C238.301 316.799 231.449 316.868 224.795 318.344C212.705 321.025 201.736 328.259 189.448 329.666C174.324 331.394 157.212 324.516 144.804 333.616C165.544 345.691 188.752 352.528 212.535 353.569C269.15 355.984 325.551 322.406 352.776 271.041C353.81 269.515 354.302 267.666 354.169 265.808C353.898 264.879 353.44 264.02 352.825 263.287C352.21 262.554 351.452 261.964 350.601 261.556C338.964 254.678 319.075 259.595 315.293 246.298C313.424 239.726 317.911 232.754 323.648 229.314C329.386 225.874 336.14 224.924 342.538 223.127C357.38 218.985 371.42 209.292 377.86 194.864C380.088 189.838 381.227 183.502 377.98 179.097C375.562 175.798 371.354 174.491 368.454 171.656C362.341 165.659 363.875 155.483 362.527 146.91Z" fill="black"/>
</g>
<g style="mix-blend-mode:multiply" opacity="0.2">
<path d="M217.939 353C180.971 353.033 144.809 342.183 113.949 321.798C83.089 301.412 58.8929 272.392 44.3696 238.345C29.8462 204.297 25.6361 166.725 32.263 130.301C38.8898 93.8764 56.0611 60.2064 81.6416 33.4776C59.8967 48.4748 41.5376 67.8771 27.7523 90.429C13.967 112.981 5.06246 138.18 1.61495 164.396C-1.83257 190.612 0.253668 217.261 7.73871 242.619C15.2238 267.976 27.9409 291.477 45.0672 311.602C62.1935 331.727 83.3476 348.026 107.161 359.446C130.974 370.866 156.915 377.151 183.307 377.896C209.699 378.641 235.953 373.829 260.37 363.77C284.788 353.712 306.825 338.631 325.055 319.505C293.594 341.345 256.219 353.033 217.939 353V353Z" fill="#222226"/>
</g>
<g style="mix-blend-mode:overlay" opacity="0.3">
<path d="M191.082 0C164.421 0.0100059 138.067 5.71005 113.777 16.7204C86.3501 49.5053 70.8462 90.6433 69.8031 133.402C68.76 176.161 82.2395 218.008 108.036 252.095C133.832 286.183 170.417 310.491 211.803 321.043C253.19 331.594 296.927 327.764 335.857 310.178C358.879 282.603 373.571 249.022 378.208 213.378C382.845 177.734 377.234 141.504 362.035 108.941C346.835 76.3784 322.677 48.8328 292.396 29.5371C262.114 10.2414 226.966 -0.00390615 191.075 0.00358644L191.082 0Z" fill="white"/>
</g>
</g>
<defs>
<linearGradient id="paint0_linear_30_14" x1="0" y1="189.004" x2="380" y2="189.004" gradientUnits="userSpaceOnUse">
<stop stop-color="#6F88A3"/>
<stop offset="0.994" stop-color="#49568B"/>
</linearGradient>
<clipPath id="clip0_30_14">
<rect width="380" height="378" fill="white"/>
</clipPath>
</defs>
</svg>
