<svg width="380" height="379" viewBox="0 0 380 379" fill="none" xmlns="http://www.w3.org/2000/svg">
<g clip-path="url(#clip0_35_5)">
<path d="M190 378.999C294.934 378.999 379.999 294.157 379.999 189.5C379.999 84.8419 294.934 0 190 0C85.0657 0 0 84.8419 0 189.5C0 294.157 85.0657 378.999 190 378.999Z" fill="url(#paint0_linear_35_5)"/>
<path opacity="0.2" d="M216.418 359.746C111.766 359.746 26.4185 274.623 26.4185 170.246C26.4185 113.497 51.8196 62.829 91.4452 27.3611C36.5789 60.8022 0.00146484 120.591 0.00146484 189.5C0.00146484 293.877 85.3489 378.999 190.001 378.999C237.755 378.999 281.445 360.759 314.974 332.385C285.509 349.612 251.98 359.746 216.418 359.746Z" fill="#222226"/>
<path opacity="0.2" d="M190.001 0C160.536 0 134.118 7.09357 108.717 18.2406C80.2683 51.6817 62.9956 94.2432 62.9956 141.871C62.9956 246.248 148.343 331.371 252.995 331.371C282.461 331.371 308.878 324.278 334.279 313.13C362.728 279.689 380 237.128 380 189.5C380 85.1229 294.653 0 190.001 0Z" fill="white"/>
<mask id="mask0_35_5" style="mask-type:alpha" maskUnits="userSpaceOnUse" x="0" y="0" width="380" height="379">
<ellipse cx="189.79" cy="189.29" rx="189.79" ry="189.29" fill="#C4C4C4"/>
</mask>
<g mask="url(#mask0_35_5)">
<path opacity="0.4" d="M138.794 -36.3523C198.741 -41.4191 258.687 -52.5661 314.569 -24.1918C325.746 -18.1116 336.922 -11.0181 348.099 -3.92451C363.339 6.20917 378.58 16.3428 385.692 32.5567C392.804 48.7706 387.724 72.078 370.452 77.1449C362.323 79.1716 353.179 78.1582 344.035 80.185C336.922 82.2117 330.826 87.2785 323.714 89.3053C319.65 90.3186 315.585 89.3053 312.537 89.3053C303.393 89.3053 293.232 97.4122 285.104 93.3587C281.04 91.332 279.008 86.2652 282.056 83.2251C286.12 79.1716 295.265 79.1716 300.345 75.1181C305.425 71.0647 313.553 65.9978 317.617 60.931C321.682 56.8775 321.682 50.7973 320.666 45.7305C316.601 24.4498 294.249 20.3963 275.96 17.3562C256.655 14.3161 235.318 7.22253 219.061 19.3829C217.029 20.3963 214.997 22.423 214.997 24.4498C213.981 29.5166 220.078 32.5567 225.158 34.5834C236.334 39.6503 247.511 44.7171 257.671 51.8107C260.719 53.8374 262.751 55.8642 263.767 58.9043C265.799 65.9978 255.639 71.0647 247.511 71.0647C228.206 71.0647 208.901 65.9978 193.66 54.8508C184.516 48.7706 174.356 39.6503 163.179 40.6637C155.051 41.677 147.939 47.7572 139.81 50.7973C119.489 57.8909 98.1526 45.7305 80.8799 32.5567C78.8478 30.53 75.7997 28.5032 73.7676 28.5032C71.7355 28.5032 69.7035 28.5032 67.6714 29.5166C60.5591 31.5433 52.4308 36.6102 51.4147 44.7171C48.3666 59.9176 78.8478 68.0246 86.9762 78.1582C93.0724 86.2652 99.1687 96.3989 108.313 97.4122C113.393 98.4256 118.473 96.3989 123.554 95.3855C130.666 94.3721 136.762 96.3989 143.874 97.4122C171.308 103.492 199.757 110.586 227.19 116.666C241.414 119.706 255.639 122.746 269.864 122.746C311.521 122.746 353.179 96.3989 392.805 109.573C393.821 122.746 378.58 128.827 365.371 131.867C329.81 138.96 293.232 147.067 257.671 154.161C243.446 157.201 229.222 160.241 214.997 159.228C190.612 158.214 167.243 145.04 141.842 146.054C125.586 147.067 109.329 153.147 93.0724 155.174C63.6072 159.228 34.142 149.094 3.66079 144.027C-6.49962 143.014 -16.66 142 -25.8044 146.054C-34.9488 150.107 -41.045 162.268 -36.9808 171.388C-32.9167 179.495 -22.7563 182.535 -14.6279 182.535C-5.48358 182.535 3.66079 182.535 11.7891 185.575C17.8854 188.615 22.9656 193.682 29.0618 197.736C34.142 200.776 40.2383 201.789 46.3345 201.789C66.6553 202.802 86.9762 196.722 108.313 195.709C149.971 194.695 190.612 218.003 230.238 208.883C235.318 207.869 243.446 206.856 244.463 212.936C245.479 216.99 240.398 220.03 236.334 222.056C182.484 240.297 124.57 243.337 67.6714 250.431C64.6233 250.431 60.5591 251.444 58.527 253.471C53.4468 257.524 54.4628 266.645 58.527 271.711C63.6072 276.778 70.7195 277.792 77.8318 277.792C96.1205 278.805 114.409 271.711 131.682 274.751C140.826 275.765 149.971 278.805 159.115 281.845C217.029 296.032 277.992 267.658 337.938 270.698C362.323 271.711 388.74 277.792 409.061 264.618C413.125 261.578 416.173 258.538 416.173 254.484C417.189 243.337 402.965 238.27 392.805 238.27C372.484 237.257 353.179 238.27 332.858 240.297C329.81 241.31 324.73 241.31 319.65 240.297C315.585 238.27 311.521 235.23 308.473 232.19C301.361 225.096 294.249 219.016 287.136 211.923C297.297 202.802 312.537 205.843 325.746 206.856C360.291 208.883 392.804 186.589 426.334 179.495C439.542 176.455 455.799 177.468 462.911 188.615C467.992 197.736 464.943 208.883 465.959 220.03C467.992 237.257 482.216 251.444 481.2 267.658C480.184 276.778 475.104 284.885 467.992 291.979C440.558 323.393 397.885 340.62 356.227 336.567C335.906 334.54 315.585 328.46 295.265 327.447C273.928 326.433 251.575 331.5 232.27 341.634C231.254 342.647 229.222 343.66 228.206 344.674C227.19 346.701 228.206 348.727 229.222 350.754C237.35 370.008 256.655 384.195 276.976 387.235C283.072 388.249 289.168 388.249 295.265 390.275C301.361 392.302 304.409 399.396 302.377 405.476C300.345 409.529 295.265 410.543 291.2 411.556C268.847 416.623 246.495 419.663 224.142 421.69C205.853 422.703 183.5 419.663 177.404 402.436C174.356 394.329 176.388 384.195 179.436 376.088C182.484 367.981 185.532 358.861 184.516 349.741C183.5 340.62 175.372 331.5 167.243 332.513C156.067 333.527 152.003 346.701 142.858 352.781C132.698 359.874 118.473 355.821 106.281 356.834C94.0884 357.848 82.912 362.914 71.7355 365.954C60.5591 368.995 46.3345 370.008 37.1901 361.901C34.142 358.861 31.0939 353.794 34.142 349.741C35.1581 348.727 37.1901 347.714 39.2222 346.701C63.6072 340.62 86.9762 333.527 111.361 327.447C117.457 325.42 125.586 320.353 121.522 314.273C120.506 312.246 117.457 311.233 115.425 311.233C95.1045 306.166 74.7837 311.233 53.4468 313.259C32.1099 315.286 9.75704 313.259 -4.46754 298.059C-17.6761 282.858 -17.6761 258.538 -30.8846 243.337C-39.0129 233.203 -52.2215 228.137 -61.3658 218.003C-77.6225 200.776 -76.6064 174.428 -74.5744 150.107C-72.5423 129.84 -69.4942 108.559 -55.2696 95.3855C-46.1252 89.3053 -31.9006 84.2384 -25.8044 72.078C-23.7723 67.0112 -23.7723 61.9444 -22.7563 56.8775C-17.6761 23.4364 9.75704 -2.91114 40.2383 -17.0983C70.7195 -30.2721 105.265 -33.3122 138.794 -36.3523Z" fill="#545FFE"/>
</g>
</g>
<defs>
<linearGradient id="paint0_linear_35_5" x1="-0.59032" y1="189.73" x2="379.647" y2="189.73" gradientUnits="userSpaceOnUse">
<stop stop-color="#6C72FF"/>
<stop offset="1" stop-color="#4354FF"/>
</linearGradient>
<clipPath id="clip0_35_5">
<rect width="380" height="379" fill="white"/>
</clipPath>
</defs>
</svg>
