<svg width="571" height="340" viewBox="0 0 571 340" fill="none" xmlns="http://www.w3.org/2000/svg">
<path d="M291.5 339C384.008 339 459 263.112 459 169.5C459 75.8877 384.008 0 291.5 0C198.992 0 124 75.8877 124 169.5C124 263.112 198.992 339 291.5 339Z" fill="url(#paint0_linear_28_5)"/>
<g style="mix-blend-mode:multiply" opacity="0.2">
<path d="M229.638 296.446C207.476 283.034 188.721 264.553 174.874 242.482C161.027 220.412 152.473 195.364 149.896 169.343C147.318 143.323 150.79 117.053 160.032 92.635C169.275 68.2174 184.031 46.3304 203.121 28.7258C183.463 40.8892 166.532 57.0792 153.411 76.258C140.29 95.4368 131.271 117.181 126.93 140.097C122.589 163.013 123.023 186.595 128.204 209.331C133.384 232.067 143.198 253.456 157.015 272.126C170.832 290.797 188.347 306.336 208.439 317.749C228.53 329.162 250.754 336.196 273.686 338.401C296.618 340.606 319.751 337.933 341.604 330.553C363.456 323.173 383.545 311.249 400.583 295.546C374.877 311.466 345.364 319.965 315.234 320.123C285.105 320.282 255.506 312.095 229.638 296.446V296.446Z" fill="#222226"/>
</g>
<g style="mix-blend-mode:overlay" opacity="0.3">
<path d="M378.149 23.6904C357.799 11.3636 335.065 3.62637 311.496 1.00623C287.927 -1.61391 264.078 0.94466 241.573 8.50743C213.684 34.3922 195.402 69.1825 189.776 107.073C184.151 144.963 191.523 183.662 210.662 216.712C229.801 249.761 259.55 275.162 294.945 288.677C330.339 302.191 369.238 303 405.151 290.971C424.137 273.332 438.792 251.443 447.947 227.049C457.102 202.656 460.504 176.433 457.881 150.472C455.259 124.511 446.684 99.5296 432.842 77.5202C418.999 55.5108 400.272 37.0822 378.153 23.7039L378.149 23.6904Z" fill="#CCBEBE"/>
</g>
<mask id="mask0_28_5" style="mask-type:alpha" maskUnits="userSpaceOnUse" x="124" y="0" width="335" height="339">
<path d="M459 169.5C459 263.112 384.008 339 291.5 339C198.992 339 124 263.112 124 169.5C124 75.8877 198.992 -6.10352e-05 291.5 -6.10352e-05C384.008 -6.10352e-05 459 75.8877 459 169.5Z" fill="#C4C4C4"/>
</mask>
<g mask="url(#mask0_28_5)">
<g style="mix-blend-mode:multiply">
<path d="M352.821 -4.03198C374.951 -3.7415 396.889 -7.58125 418.996 -8.46062C425.589 -9.08537 432.239 -8.3656 438.553 -6.34377C450.051 -1.89918 455.444 9.28592 463.327 17.7891C485.509 41.7509 525.803 43.4301 560.287 50.6162C597.086 58.0718 631.54 74.4898 660.675 98.4523C634.388 110.974 601.362 103.347 574.702 91.4571C548.043 79.5677 522.998 63.4685 493.514 58.6738C473.972 55.4906 453.26 57.4801 434.594 51.5115C420.544 47.0032 408.775 38.3091 395.019 33.2079C356.493 18.8834 309.487 34.5767 271.256 19.6791C263.89 16.8023 256.848 12.7915 248.815 12.0275C240.782 11.2635 231.257 15.3858 230.718 22.373C230.776 24.3835 231.286 26.3542 232.21 28.1347C233.134 29.9152 234.447 31.4584 236.049 32.6469C257.551 51.7224 296.183 35.4044 324.967 44.8705C335.27 48.2567 343.881 54.8977 354.337 57.8939C372.013 62.9592 392.262 56.9071 409.608 62.7881C418.352 65.7485 425.41 71.4465 433.333 75.8036C456.241 88.4013 484.9 89.1652 511.163 95.0781C562.097 106.542 606.103 138.08 658.463 142.699C630.181 159.487 591.538 152.909 560.027 141.203C528.517 129.497 497.965 113.067 463.732 111.571C442.407 110.636 421.031 115.654 399.8 113.561C377.681 111.408 357.656 101.779 337.344 93.9043C291.521 76.3179 243.006 67.017 194.007 66.425C218.391 76.4944 243.356 85.0532 268.765 92.054L371.341 122.601C396.685 130.161 422.374 137.757 449.092 139.48C467.208 140.65 485.493 139.082 503.531 140.96C521.711 142.772 539.341 148.298 555.353 157.207C575.421 168.571 591.97 185.434 614.878 191.578C637.444 197.622 665.239 193.086 682.137 207.379C640.854 216.837 595.878 222.98 556.331 209.03C536.11 201.895 518.547 189.879 498.24 182.911C477.838 175.912 455.613 174.309 433.859 171.77C397.682 167.548 362.016 160.545 326.413 153.554C281.484 144.733 233.594 134.455 202.649 104.898C195.465 98.0385 183.009 89.9252 176.119 96.9959C174.405 98.944 173.46 101.465 173.468 104.075C172.816 116.29 182.644 127.344 194.443 134.053C206.243 140.761 220.058 144.199 233.048 149.002C258.34 158.357 280.722 172.964 306.207 181.913C354.938 199.023 411.525 194.276 459.117 213.626C482.08 222.965 502.238 237.675 526.635 243.683C565.672 253.293 612.329 239.955 645.159 260.618C625.869 273.152 600.148 274.577 576.05 275.52C538.537 276.98 498.648 277.963 466.219 261.593C449.654 253.237 435.867 240.639 417.935 234.766C395.447 227.405 370.336 231.754 346.406 229.721C319.126 227.405 293.665 216.789 266.644 212.794C250.276 210.379 233.146 210.343 217.897 204.661C189.459 194.069 172.223 165.599 142.059 159.57C155.061 198.887 175.793 241.734 219.63 256.961C260.108 271.019 307.02 256.464 349.227 265.982C369.315 270.51 387.199 280.251 405.829 288.181C448.315 306.258 495.129 315.036 541.408 323.658C560.691 327.714 580.227 330.42 599.877 331.756C574.765 345.177 543.031 343.41 513.637 341.194C483.392 338.918 452.796 336.582 424.079 328.063C402.369 321.617 382.12 311.725 360.111 306.071C312.374 293.807 259.786 302.231 212.504 288.71C230.161 311.371 268.6 309.401 298.021 319.297C310.127 323.372 321.047 329.718 332.902 334.326C343.435 338.18 354.242 341.217 365.229 343.41C413.102 353.854 461.817 359.841 510.766 361.296C486.436 382.673 455.543 394.848 423.348 395.746C375.505 397.418 331.291 376.07 286.96 360.405C261.428 351.384 234.949 344.039 211.075 332.09C184.479 318.124 160.397 299.718 139.84 277.644C101.986 238.65 71.9364 192.043 65.8205 141.366C63.4918 125.077 64.7828 108.466 69.5993 92.7464C80.5663 59.5094 110.608 33.9878 139.471 10.1056C161.974 -8.51632 186.776 -28.0932 217.685 -31.2526C244.223 -33.9504 266.585 -29.466 291.009 -21.3408C311.133 -14.6918 330.702 -4.32245 352.821 -4.03198Z" fill="#D1992A"/>
</g>
</g>
<path d="M568.995 278.847C580.925 248.078 536.888 198.927 457.979 150.896C459.029 160.21 459.193 170.475 458.694 179.835C483.733 201.506 493.867 220.323 488.331 234.599C475.837 266.827 376.752 257.559 267.027 213.9C157.302 170.24 78.4768 108.719 90.9782 76.491C97.3458 60.0619 126.28 54.4818 167.584 58.6669C173.228 52.2249 179.358 46.2372 185.918 40.7581C88.6217 17.9295 14.7131 20.9024 2.15489 53.2865C-15.6713 99.2689 96.7508 187.035 253.299 249.314C409.847 311.594 551.169 324.816 568.995 278.847Z" fill="url(#paint1_linear_28_5)"/>
<g style="mix-blend-mode:multiply">
<path d="M488.619 233.579C490.112 231.9 493.379 231.792 494.21 229.694C499.745 215.415 487.311 195.394 462.271 173.723C462.565 167.291 462.496 160.847 462.064 154.423C460.64 153.542 459.419 152.817 457.979 151.929C459.029 161.243 459.17 170.475 458.671 179.835C483.48 201.299 493.783 219.324 488.619 233.579Z" fill="#CCBEBE"/>
</g>
<g style="mix-blend-mode:multiply">
<path d="M94.5789 70.3797C94.5321 70.5016 94.5487 70.6337 94.502 70.7522C104.931 58.8063 131.541 55.0105 167.585 58.6674C173.229 52.2254 179.359 46.2377 185.919 40.7587C185.057 40.5589 184.248 40.3964 183.379 40.1966C179.099 44.0876 175.031 48.2123 171.195 52.5523C129.887 48.3671 100.95 53.9575 94.5789 70.3797Z" fill="#CCBEBE"/>
</g>
<g style="mix-blend-mode:multiply">
<path d="M256.906 243.214C100.374 180.928 -12.0646 93.1686 5.76159 47.1929C5.83847 46.9864 5.98221 46.8137 6.06578 46.6139C4.45496 48.6421 3.14015 50.8943 2.16161 53.3013C-15.6645 99.2838 96.7575 187.05 253.305 249.329C409.071 311.294 549.759 324.675 568.691 279.489C539.724 317.145 405.154 302.209 256.906 243.214Z" fill="#CCBEBE"/>
</g>
<defs>
<linearGradient id="paint0_linear_28_5" x1="124" y1="169.5" x2="459" y2="169.5" gradientUnits="userSpaceOnUse">
<stop offset="0.285" stop-color="#FCBE33"/>
<stop offset="0.96" stop-color="#FC8A33"/>
</linearGradient>
<linearGradient id="paint1_linear_28_5" x1="0.296509" y1="166.078" x2="570.852" y2="166.078" gradientUnits="userSpaceOnUse">
<stop stop-color="#FFE1A4"/>
<stop offset="1" stop-color="#FEB86F"/>
</linearGradient>
</defs>
</svg>
