<svg width="580" height="562" viewBox="0 0 580 562" fill="none" xmlns="http://www.w3.org/2000/svg">
<g clip-path="url(#clip0_31_22)">
<path d="M290 562C450.163 562 580 436.192 580 281C580 125.808 450.163 0 290 0C129.837 0 0 125.808 0 281C0 436.192 129.837 562 290 562Z" fill="url(#paint0_linear_31_22)"/>
<g style="mix-blend-mode:multiply" opacity="0.2">
<path d="M327.982 516.997C262.626 517.004 199.473 494.105 150.178 452.526C100.882 410.947 68.7709 353.495 59.77 290.771C50.769 228.047 65.4859 164.284 101.205 111.251C136.923 58.2182 191.233 19.4934 254.112 2.22314C204.208 8.2689 156.785 26.7871 116.499 55.9592C76.2139 85.1314 44.4512 123.954 24.3303 168.616C4.20945 213.277 -3.57774 262.242 1.73345 310.701C7.04463 359.16 25.2715 405.447 54.6244 445.018C83.9772 484.588 123.447 516.081 169.157 536.404C214.867 556.727 265.246 565.181 315.347 560.936C365.449 556.69 413.549 539.892 454.925 512.19C496.301 484.489 529.531 446.836 551.35 402.929C526.503 438.114 493.171 466.893 454.247 486.771C415.323 506.649 371.981 517.024 327.982 516.997V516.997Z" fill="#222226"/>
</g>
<g style="mix-blend-mode:overlay" opacity="0.2">
<path d="M293.736 0.0736694C256.886 11.3508 223.256 30.795 195.515 56.8634C167.774 82.9317 146.686 114.906 133.923 150.25C121.16 185.594 117.075 223.333 121.991 260.474C126.908 297.614 140.691 333.133 162.246 364.211C183.801 395.29 212.535 421.072 246.168 439.513C279.801 457.953 317.407 468.544 356.001 470.444C394.595 472.345 433.115 465.503 468.504 450.462C503.893 435.42 535.177 412.593 559.873 383.793C577.047 341.477 583.364 295.755 578.282 250.553C573.2 205.351 556.87 162.019 530.695 124.28C504.521 86.5412 469.283 55.5224 428.009 33.8879C386.735 12.2534 340.658 0.649776 293.736 0.0736694V0.0736694Z" fill="black"/>
</g>
</g>
<defs>
<linearGradient id="paint0_linear_31_22" x1="1.74" y1="281" x2="575.94" y2="281" gradientUnits="userSpaceOnUse">
<stop stop-color="#FFD000"/>
<stop offset="1" stop-color="#C88500"/>
</linearGradient>
<clipPath id="clip0_31_22">
<rect width="580" height="562" fill="white"/>
</clipPath>
</defs>
</svg>
