<svg width="380" height="378" viewBox="0 0 380 378" fill="none" xmlns="http://www.w3.org/2000/svg">
<g clip-path="url(#clip0_4_25)">
<path d="M189.988 377.976C294.915 377.976 379.976 293.363 379.976 188.988C379.976 84.6128 294.915 0 189.988 0C85.0605 0 0 84.6128 0 188.988C0 293.363 85.0605 377.976 189.988 377.976Z" fill="url(#paint0_linear_4_25)"/>
<g style="mix-blend-mode:multiply" opacity="0.2">
<path d="M217.426 358.093C178.869 358.1 141.223 346.436 109.491 324.65C77.7586 302.864 53.4422 271.989 39.7734 236.126C26.1045 200.264 23.7305 161.113 32.9667 123.876C42.2028 86.6393 62.6118 53.08 91.4816 27.658C68.9146 41.2694 49.446 59.4085 34.3168 80.919C19.1876 102.43 8.7296 126.84 3.60958 152.593C-1.51044 178.347 -1.1803 204.879 4.57907 230.499C10.3384 256.119 21.4007 280.264 37.0606 301.395C52.7204 322.527 72.6346 340.181 95.5334 353.232C118.432 366.284 143.813 374.446 170.059 377.199C196.305 379.953 222.84 377.237 247.972 369.224C273.104 361.211 296.282 348.078 316.029 330.661C286.323 348.652 252.204 358.144 217.426 358.093Z" fill="#222226"/>
</g>
<g style="mix-blend-mode:overlay" opacity="0.5">
<path d="M332.211 312.607C355.121 286.825 370.516 255.308 376.734 221.458C382.953 187.609 379.759 152.713 367.497 120.537C355.236 88.3618 334.373 60.1286 307.159 38.8857C279.946 17.6428 247.417 4.1971 213.084 3.05176e-05C187.219 3.33492 162.45 12.4527 140.634 26.6693C118.819 40.8859 100.522 59.8322 87.1185 82.0868C73.7146 104.341 65.551 129.327 63.2402 155.168C60.9293 181.009 64.5312 207.035 73.7757 231.294C83.0202 255.552 97.6672 277.414 116.618 295.238C135.569 313.061 158.331 326.385 183.197 334.209C208.063 342.033 234.388 344.153 260.195 340.412C286.003 336.671 310.624 327.165 332.211 312.607Z" fill="white"/>
</g>
<mask id="mask0_4_25" style="mask-type:alpha" maskUnits="userSpaceOnUse" x="3" y="2" width="377" height="375">
<ellipse cx="191.306" cy="189.511" rx="188.186" ry="187.195" fill="white"/>
</mask>
<g mask="url(#mask0_4_25)">
<g style="mix-blend-mode:multiply" opacity="0.5">
<path d="M-27.3104 68.1009C87.3418 75.0312 202.232 59.1384 310.633 21.3529C184.099 116.343 -2.82407 141.285 -167.971 108.411C-128.421 125.446 -82.8093 129.244 -38.3911 130.849C100.758 135.901 248.969 119.599 357.998 46.8209C344.446 88.134 295.163 112.815 249.087 131.243C185.808 156.578 119.908 178.445 50.7897 188.325C-18.3287 198.205 -91.1469 195.591 -156.023 173.302C-5.01201 228.864 171.813 211.6 326.052 162.669C200.777 228.848 47.648 256.978 -99.089 240.765C15.5129 259.037 139.566 272.223 244.238 228.991C161.567 267.54 65.2545 285.149 -29.017 278.988C50.0921 291.893 130.961 289.501 209.159 271.941C141.999 308.666 56.1898 307.727 -23.9104 305.519C104.33 333.757 248.053 306.512 349.418 234.765C340.807 291.339 277.694 329.613 217.816 356.531C178.842 374.051 138.315 389.975 95.0836 397.704C21.7869 410.802 -58.6036 398.314 -118.252 360.234C-177.901 322.154 -214.185 258.041 -206.329 195.464C-201.089 153.671 -181.971 93.5056 -132.529 75.4143C-95.8548 61.9933 -65.3782 65.8133 -27.3104 68.1009Z" fill="#51BCB7"/>
</g>
<g style="mix-blend-mode:multiply" opacity="0.2">
<path d="M353.614 41.183C313.947 28.5722 274.367 20.4065 231.78 26.6935C194.56 32.1915 160.149 46.9328 121.588 47.1231C107.836 47.1906 -48.5049 52.5382 -47.8931 45.8123C-48.304 50.3863 -42.6624 53.7938 -37.5337 56.176C8.46054 77.4161 63.1858 86.1036 116.876 84.9832C170.567 83.8627 223.333 73.3178 273.344 58.3187C202.593 102.899 110.419 127.046 18.8662 125.001C123.463 134.969 234.326 134.37 328.332 97.8211C310.328 113.079 289.675 124.949 267.387 132.848C244.929 140.983 220.617 145.664 196.306 149.566C148.69 157.205 100.665 162.072 52.4774 164.141C156.66 173.845 265.926 171.095 361.433 137.741C297.365 168.003 232.327 194.318 158.171 206.947C191.656 201.243 229.803 200.737 263.667 198.91C301.978 196.85 341.407 187.994 377.32 177.996C345.025 210.843 294.022 230.087 242.22 240.776C190.417 251.465 136.557 254.676 83.7932 262.136C133.844 271.788 186.75 269.666 237.273 261.605C287.797 253.544 336.389 239.714 384.759 225.934C350.75 251.561 306.334 267.868 260.479 277.875C214.624 287.883 166.967 291.956 119.57 295.987C144.111 311.029 177.982 312.85 209.393 312.107C254.043 311.066 298.514 306.135 342.297 297.371C266.776 335.01 172.915 350.427 83.9076 339.821C114.417 354.955 153.216 356.091 189.379 353.282C247.765 348.905 305.044 335.109 358.968 312.438C383.715 301.878 407.403 289.289 425.773 272.767C441.85 258.099 454.575 240.178 463.092 220.212C482.247 176.467 480.672 124.547 443.514 88.2494C420.849 66.1375 387.518 51.955 353.614 41.183Z" fill="#51BCB7"/>
</g>
</g>
</g>
<defs>
<linearGradient id="paint0_linear_4_25" x1="0" y1="188.988" x2="379.976" y2="188.988" gradientUnits="userSpaceOnUse">
<stop stop-color="#71FFFB"/>
<stop offset="0.997" stop-color="#0068FB"/>
</linearGradient>
<clipPath id="clip0_4_25">
<rect width="380" height="378" fill="white"/>
</clipPath>
</defs>
</svg>
