<svg width="380" height="378" viewBox="0 0 380 378" fill="none" xmlns="http://www.w3.org/2000/svg">
<g clip-path="url(#clip0_30_5)">
<path d="M190 378C294.934 378 380 293.382 380 189C380 84.6182 294.934 0 190 0C85.0659 0 0 84.6182 0 189C0 293.382 85.0659 378 190 378Z" fill="#FFD0A6"/>
<path d="M190 378C294.934 378 380 293.382 380 189C380 84.6182 294.934 0 190 0C85.0659 0 0 84.6182 0 189C0 293.382 85.0659 378 190 378Z" fill="url(#paint0_linear_30_5)"/>
<g style="mix-blend-mode:multiply" opacity="0.5">
<path d="M77.8516 73.1807C86.717 69.5674 98.3634 71.3318 103.368 79.784C106.854 85.6741 106.337 93.3814 103.858 99.7998C100.991 106.115 97.4744 112.027 93.3818 117.415C85.392 129.343 78.7974 142.906 78.0998 157.449C77.4022 171.992 83.7626 187.575 96.1792 194.163C100.368 196.618 105.203 197.282 109.792 196.033C113.205 194.642 116.31 192.434 118.894 189.559C135.26 173.466 149.477 154.778 167.905 141.35C186.333 127.922 210.895 120.41 231.435 129.924C233.71 130.848 235.791 132.292 237.549 134.166C240.81 138.004 241.147 143.648 240.761 148.762C239.278 165.955 231.947 181.832 220.308 193.056C209.359 203.73 189.538 218.006 202.35 235.726C205.155 239.302 208.828 241.871 212.914 243.116C217 244.361 221.32 244.227 225.339 242.731C229.815 240.998 233.612 237.628 238.191 236.183C258.899 229.646 265.154 258.346 263.27 273.537C260.66 294.638 249.374 314.017 234.534 328.251C217.009 345.047 194.681 355.457 171.889 362.554C159.999 366.252 144.266 367.657 137.999 356.479C133.551 348.555 136.594 338.534 139.752 329.957C143.37 320.082 146.987 310.203 150.605 300.319C154.891 288.616 158.745 274.041 150.755 264.699C144.5 257.364 133.532 256.981 124.458 259.554C115.385 262.126 106.952 267.057 97.6728 268.6C63.2602 274.297 25.9753 239.942 41.1824 202.406C42.8772 198.238 45.5717 194.306 45.7051 189.778C46.1476 175.47 24.9687 164.097 22.1805 148.598C19.2309 132.238 28.3514 116.11 39.1387 103.854C49.5397 92.0608 63.3375 79.092 77.8516 73.1807Z" fill="#FFD0A6"/>
</g>
<g style="mix-blend-mode:multiply" opacity="0.5">
<path d="M243.822 10.4192C212.024 10.6199 184.829 28.5544 154.055 30.1814C148.051 30.9322 142.226 32.9443 136.879 36.1138C133.46 37.6092 130.268 39.6962 127.419 42.2997C126.004 43.6189 124.877 45.2878 124.126 47.1771C123.374 49.0665 123.018 51.1256 123.086 53.1951C123.434 57.0963 125.733 60.3477 127.344 63.8369C135.277 81.0476 123.245 99.777 119.637 116.351C118.906 119.053 118.746 121.911 119.169 124.695C120.63 131.85 128.552 135.295 134.875 133.517C141.198 131.739 146.133 126.309 150.559 120.91C163.938 104.582 175.875 86.2457 192.297 73.9346C208.719 61.6235 231.527 56.7027 247.846 69.1802C262.733 80.5537 267.923 103.026 266.574 123.256C265.226 143.485 258.641 162.735 254.902 182.571C253.678 189.066 252.924 196.465 256.466 201.768C262.948 211.462 276.345 205.994 287.067 206.892C293.459 207.652 299.404 210.951 303.838 216.202C308.272 221.452 310.907 228.31 311.271 235.55C311.421 242.344 309.576 249.594 312.261 255.675C316.294 264.795 328.166 265.326 336.153 260.585C350.983 251.773 357.351 232.032 362.468 214.034C366.312 200.523 370.153 187.016 373.99 173.512C376.648 164.177 379.333 154.42 377.928 144.745C376.495 134.89 371.013 126.441 365.275 118.839C350.153 98.8226 332.232 81.7306 312.221 68.2399C300.282 60.1919 286.938 52.7197 280.215 38.9743C277.266 32.9363 275.749 25.9316 271.802 20.6701C265.256 11.9406 253.961 10.3558 243.822 10.4192Z" fill="#FFD0A6"/>
</g>
<g style="mix-blend-mode:multiply" opacity="0.5">
<path d="M244.623 81.8358C241.226 74.8861 235.525 69.3372 228.395 70.9846C221.479 72.5749 219.961 79.2945 217.095 86.678C212.213 99.2173 203.162 95.8228 196.198 104.233C195.359 105.146 194.777 106.358 194.532 107.697C194.288 109.037 194.393 110.436 194.835 111.697C196.104 114.548 199.421 115.065 201.939 113.992C204.346 112.593 206.668 110.985 208.888 109.183C213.379 106.314 218.678 106.143 223.753 106.2C228.828 106.257 234.061 106.454 238.781 104.163C243.5 101.873 247.596 96.3869 247.241 90.2068C246.915 87.2057 246.018 84.3392 244.623 81.8358V81.8358Z" fill="#FFD0A6"/>
</g>
<g style="mix-blend-mode:multiply" opacity="0.5">
<path d="M119.486 286.624C123.726 286.571 128.436 287.889 130.744 291.907C132.202 294.913 132.672 298.403 132.072 301.762C131.692 304.911 130.98 307.998 129.951 310.956C128.561 314.905 126.785 318.667 124.655 322.171C120.378 329.831 114.244 335.948 106.981 339.796C75.6279 354.86 84.1 287.06 119.486 286.624Z" fill="#FFD0A6"/>
</g>
<g style="mix-blend-mode:multiply" opacity="0.2">
<path d="M215.183 356.085C177.976 356.112 141.58 345.262 110.52 324.885C79.4601 304.507 55.1041 275.5 40.479 241.467C25.8539 207.435 21.6045 169.877 28.2588 133.463C34.913 97.0477 52.1776 63.3806 77.9071 36.6449C56.6218 52.1074 38.8066 71.8093 25.5957 94.4963C12.3849 117.183 4.06796 142.358 1.17451 168.418C-1.71894 194.478 0.874527 220.851 8.78971 245.859C16.7049 270.867 29.7684 293.962 47.1483 313.672C64.5283 333.383 85.8439 349.277 109.738 360.344C133.632 371.41 159.581 377.406 185.932 377.949C212.283 378.493 238.459 373.572 262.794 363.5C287.129 353.429 309.088 338.427 327.275 319.45C294.799 343.249 255.52 356.087 215.183 356.085Z" fill="#222226"/>
</g>
<g style="mix-blend-mode:overlay" opacity="0.2">
<path d="M189.999 0.010203C162.558 0.0282644 135.451 5.99269 110.563 17.4887C81.6854 49.9463 64.9179 91.302 63.078 134.607C61.2382 177.912 74.4381 220.528 100.46 255.293C126.482 290.059 163.74 314.856 205.974 325.518C248.208 336.18 292.845 332.058 332.384 313.843C356.604 286.598 372.398 252.973 377.864 217.011C383.33 181.049 378.237 144.282 363.196 111.132C348.155 77.981 323.808 49.858 293.081 30.1447C262.355 10.4315 226.558 -0.0328247 189.995 0.010203H189.999Z" fill="white"/>
</g>
</g>
<defs>
<linearGradient id="paint0_linear_30_5" x1="-1.9" y1="179.172" x2="486.386" y2="204.384" gradientUnits="userSpaceOnUse">
<stop stop-color="#FFD0A6"/>
<stop offset="0.993" stop-color="#FF77A6"/>
</linearGradient>
<clipPath id="clip0_30_5">
<rect width="380" height="378" fill="white"/>
</clipPath>
</defs>
</svg>
